<?xml version="1.0" encoding="UTF-8" standalone="no"?>
<svg
   xmlns:osb="http://www.openswatchbook.org/uri/2009/osb"
   xmlns:dc="http://purl.org/dc/elements/1.1/"
   xmlns:cc="http://creativecommons.org/ns#"
   xmlns:rdf="http://www.w3.org/1999/02/22-rdf-syntax-ns#"
   xmlns:svg="http://www.w3.org/2000/svg"
   xmlns="http://www.w3.org/2000/svg"
   xmlns:sodipodi="http://sodipodi.sourceforge.net/DTD/sodipodi-0.dtd"
   xmlns:inkscape="http://www.inkscape.org/namespaces/inkscape"
   style="isolation:isolate"
   width="48"
   height="48"
   version="1.1"
   id="svg20"
   sodipodi:docname="podcasts.svg"
   inkscape:version="1.0.2 (e86c870879, 2021-01-15)">
  <metadata
     id="metadata24">
    <rdf:RDF>
      <cc:Work
         rdf:about="">
        <dc:format>image/svg+xml</dc:format>
        <dc:type
           rdf:resource="http://purl.org/dc/dcmitype/StillImage" />
        <dc:title></dc:title>
      </cc:Work>
    </rdf:RDF>
  </metadata>
  <sodipodi:namedview
     pagecolor="#ffffff"
     bordercolor="#666666"
     borderopacity="1"
     objecttolerance="10"
     gridtolerance="10"
     guidetolerance="10"
     inkscape:pageopacity="0"
     inkscape:pageshadow="2"
     inkscape:window-width="1366"
     inkscape:window-height="703"
     id="namedview22"
     showgrid="false"
     inkscape:zoom="10.041667"
     inkscape:cx="24"
     inkscape:cy="24"
     inkscape:window-x="0"
     inkscape:window-y="0"
     inkscape:window-maximized="1"
     inkscape:current-layer="svg20" />
  <defs
     id="defs14">
    <linearGradient
       gradientUnits="userSpaceOnUse"
       gradientTransform="scale(.99258 1.00748)"
       y2="2.787"
       x2="24.088"
       y1="45.462"
       x1="24.088"
       id="a">
      <stop
         stop-color="#c61423"
         offset="0%"
         id="stop2" />
      <stop
         stop-color="#dc2b41"
         offset="100%"
         id="stop4" />
    </linearGradient>
    <radialGradient
       gradientUnits="userSpaceOnUse"
       gradientTransform="scale(1.68481 .59354)"
       r="4591.215"
       cy="6415.977"
       cx="5186.308"
       fy="6415.977"
       fx="5186.308"
       id="b">
      <stop
         stop-color="#fff"
         offset="0%"
         id="stop7" />
      <stop
         stop-color="#f5f5f5"
         offset="26.11%"
         id="stop9" />
      <stop
         stop-color="#e5e5e5"
         offset="76.1%"
         id="stop11" />
    </radialGradient>
    <linearGradient
       osb:paint="solid"
       id="linearGradient7212">
      <stop
         style="stop-color:#000000;stop-opacity:1;"
         offset="0"
         id="stop7214" />
    </linearGradient>
    <filter
       inkscape:collect="always"
       style="color-interpolation-filters:sRGB"
       id="filter1350"
       x="-1.209082e-06"
       width="1.0000024"
       y="-1.1910535e-06"
       height="1.0000024">
      <feGaussianBlur
         inkscape:collect="always"
         stdDeviation="2.100125e-05"
         id="feGaussianBlur1352" />
    </filter>
    <filter
       inkscape:collect="always"
       style="color-interpolation-filters:sRGB"
       id="filter1354"
       x="-1.7397317e-06"
       width="1.0000035"
       y="-2.5305188e-06"
       height="1.0000051">
      <feGaussianBlur
         inkscape:collect="always"
         stdDeviation="2.100125e-05"
         id="feGaussianBlur1356" />
    </filter>
  </defs>
  <path
     d="M3.066 28.69v-8.577c0-14.042 11.247-16.967 17.282-16.967h7.123c5.959 0 17.282 2.731 17.282 18.009v6.997c0 11.674-7.708 17.312-17.282 17.312h-7.123c-9.574 0-17.282-5.523-17.282-16.774z"
     vector-effect="non-scaling-stroke"
     fill="url(#a)"
     stroke="#000"
     stroke-width=".336"
     stroke-linecap="square"
     stroke-linejoin="bevel"
     stroke-opacity=".078"
     id="path16"
     style="filter:url(#filter1350)" />
  <path
     style="display:inline;vector-effect:none;fill:#ffffff;fill-opacity:1;stroke:none;stroke-width:4.7416;stroke-linecap:butt;stroke-linejoin:round;stroke-miterlimit:4;stroke-dasharray:none;stroke-dashoffset:0;stroke-opacity:0.437008;filter:url(#filter1354)"
     d="m 11.234377,14.345974 c -1.003145,0 -1.8107319,0.807586 -1.8107319,1.810732 v 16.296586 c 0,1.003145 0.8075869,1.810732 1.8107319,1.810732 h 25.350245 c 1.003145,0 1.810732,-0.807587 1.810732,-1.810732 V 16.156706 c 0,-1.003146 -0.807587,-1.810732 -1.810732,-1.810732 z m 0,5.432195 h 25.350245 v 7.242928 H 11.234377 Z m 5.432195,1.810732 a 1.8107318,1.8107318 0 0 0 -1.810732,1.810732 1.8107318,1.8107318 0 0 0 1.810732,1.810732 1.8107318,1.8107318 0 0 0 1.810732,-1.810732 1.8107318,1.8107318 0 0 0 -1.810732,-1.810732 z m 3.621464,0 v 3.621464 h 7.242927 v -3.621464 z m 10.864391,0 a 1.8107318,1.8107318 0 0 0 -1.810732,1.810732 1.8107318,1.8107318 0 0 0 1.810732,1.810732 1.8107318,1.8107318 0 0 0 1.810731,-1.810732 1.8107318,1.8107318 0 0 0 -1.810731,-1.810732 z m -12.675123,7.242927 h 10.864391 l 1.810732,3.621464 H 16.666572 Z"
     id="rect2029" />
</svg>
