<?xml version="1.0" encoding="UTF-8" standalone="no"?>
<svg
   width="48"
   height="48"
   version="1.1"
   id="svg38"
   sodipodi:docname="timeshift.svg"
   inkscape:version="1.1 (c68e22c387, 2021-05-23)"
   xmlns:inkscape="http://www.inkscape.org/namespaces/inkscape"
   xmlns:sodipodi="http://sodipodi.sourceforge.net/DTD/sodipodi-0.dtd"
   xmlns:xlink="http://www.w3.org/1999/xlink"
   xmlns="http://www.w3.org/2000/svg"
   xmlns:svg="http://www.w3.org/2000/svg"
   xmlns:rdf="http://www.w3.org/1999/02/22-rdf-syntax-ns#"
   xmlns:cc="http://creativecommons.org/ns#"
   xmlns:dc="http://purl.org/dc/elements/1.1/">
  <metadata
     id="metadata46">
    <rdf:RDF>
      <cc:Work
         rdf:about="">
        <dc:format>image/svg+xml</dc:format>
        <dc:type
           rdf:resource="http://purl.org/dc/dcmitype/StillImage" />
      </cc:Work>
    </rdf:RDF>
  </metadata>
  <sodipodi:namedview
     pagecolor="#ffffff"
     bordercolor="#666666"
     borderopacity="1"
     objecttolerance="10"
     gridtolerance="10"
     guidetolerance="10"
     inkscape:pageopacity="0"
     inkscape:pageshadow="2"
     inkscape:window-width="1366"
     inkscape:window-height="708"
     id="namedview44"
     showgrid="false"
     inkscape:zoom="2.56"
     inkscape:cx="-21.679688"
     inkscape:cy="23.4375"
     inkscape:window-x="0"
     inkscape:window-y="0"
     inkscape:window-maximized="1"
     inkscape:current-layer="svg38"
     inkscape:pagecheckerboard="0" />
  <defs
     id="defs22">
    <linearGradient
       id="linearGradient853">
      <stop
         offset="0"
         id="stop849"
         stop-color="#f31d41"
         stop-opacity="1" />
      <stop
         offset="1"
         id="stop851"
         stop-color="#f24949"
         stop-opacity="1" />
    </linearGradient>
    <linearGradient
       id="linearGradient4488">
      <stop
         id="stop4490"
         offset="0"
         stop-color="#000"
         stop-opacity=".047" />
      <stop
         id="stop4492"
         offset="1"
         stop-color="#000"
         stop-opacity="0" />
    </linearGradient>
    <style
       id="style4511" />
    <style
       id="style4511-26" />
    <style
       id="style4511-9" />
    <style
       id="style4552" />
    <style
       id="style4511-2" />
    <linearGradient
       xlink:href="#linearGradient4488"
       id="linearGradient4540"
       gradientUnits="userSpaceOnUse"
       gradientTransform="translate(-62.889 1.994) scale(.3038)"
       x1="288.112"
       y1="141.785"
       x2="287.575"
       y2="79.008" />
    <style
       id="style4552-1" />
    <style
       id="style4552-3" />
    <style
       id="style4511-20" />
    <style
       id="style4552-2" />
    <style
       id="style4511-2-6" />
    <style
       id="style4511-7" />
    <style
       id="style4511-26-7" />
    <style
       id="style4511-9-1" />
    <style
       id="style4552-38" />
    <style
       id="style4511-2-8" />
    <style
       id="style4552-7" />
    <style
       id="style4552-6" />
    <style
       type="text/css"
       id="current-color-scheme" />
    <linearGradient
       id="b-3675"
       gradientUnits="userSpaceOnUse"
       x1="13.085"
       x2="28.809"
       xlink:href="#a-35"
       y1="1024.741"
       y2="1024.741"
       gradientTransform="translate(-14.91 -1865.543) scale(1.84351)" />
    <linearGradient
       id="a-35">
      <stop
         offset="0"
         stop-color="#f6fbff"
         id="stop2-629" />
      <stop
         offset="1"
         stop-color="#eaeff2"
         id="stop4-1" />
    </linearGradient>
    <linearGradient
       xlink:href="#linearGradient853"
       id="linearGradient855"
       x1="25.627"
       y1="41.695"
       x2="26.237"
       y2="7.729"
       gradientUnits="userSpaceOnUse" />
  </defs>
  <style
     id="style4485"
     type="text/css" />
  <path
     id="path4516"
     d="M2.75 26.22v1.67c0 9.573 5.583 17.281 17.146 17.281h6.93c15.132 0 17.836-11.322 17.836-17.282v-1.668c0 5.96-2.704 17.282-17.836 17.282h-6.93C8.333 43.503 2.75 35.795 2.75 26.22z"
     opacity="1"
     fill="url(#linearGradient4540)"
     fill-opacity="1"
     stroke="none"
     stroke-width="1.1"
     stroke-linecap="square"
     stroke-linejoin="bevel"
     stroke-miterlimit="4"
     stroke-dasharray="none"
     stroke-dashoffset="0"
     stroke-opacity=".078" />
  <path
     id="path4518"
     d="M19.363 2.742h8.495c13.908 0 16.804 11.247 16.804 17.282v7.124c0 5.96-2.704 17.282-17.836 17.282h-6.93C8.333 44.43 2.75 36.722 2.75 27.148v-7.124c0-9.574 5.47-17.282 16.613-17.282z"
     opacity="1"
     fill="url(#linearGradient855)"
     fill-opacity="1"
     stroke="#000"
     stroke-width=".334"
     stroke-linecap="square"
     stroke-linejoin="bevel"
     stroke-miterlimit="4"
     stroke-dasharray="none"
     stroke-dashoffset="0"
     stroke-opacity=".078"
     style="fill:#e53d35;fill-opacity:1" />
  <style
     type="text/css"
     id="style4485-31" />
  <style
     id="style4485-35"
     type="text/css" />
  <style
     id="style4485-3"
     type="text/css" />
  <style
     type="text/css"
     id="style4485-0" />
  <style
     id="style4485-4"
     type="text/css" />
  <style
     id="style4485-5"
     type="text/css" />
  <path
     style="fill:#ffffff;stroke-width:1.22703"
     d="m 25.000269,36.233405 c -3.605579,-1.27235 -5.495102,-1.647479 -6.977058,-1.60144 -1.574494,0.133037 -2.91484,0.607711 -4.45876,1.103937 -0.846064,0.241251 -0.847183,0.228716 -0.05668,-0.635789 0.443515,-0.485043 2.0106,-1.639319 3.482405,-2.565061 2.002999,-1.259855 3.112887,-1.584179 4.413092,-1.584179 2.047928,0 3.402967,-1.219926 2.965089,-2.551818 -1.64449,-2.618826 -5.575465,-6.037398 -5.575465,-6.969026 0,-0.779787 1.520637,-2.759719 3.340536,-4.639525 0.805286,-0.831789 1.15368,-1.497054 0.902497,-1.723312 -0.523404,-0.471455 -5.542926,-1.294751 -7.888545,-1.294751 -1.873468,0 -3.524858,0.574735 -3.524858,1.784887 0,0.335731 0.229712,1.268113 0.960797,2.071963 l 1.329242,1.461545 c -0.879223,0.980724 -1.254823,2.04379 -2.767038,2.04379 -2.1688769,0 -2.1688769,-1.717454 -2.1574059,-3.388001 0.30625,-4.090786 6.6904029,-8.1913882 12.7287819,-7.604262 3.819331,0.372034 7.167182,0.908288 10.823497,1.176017 2.0342,0.09816 3.309454,-0.400995 5.217307,-1.107772 1.382548,-0.5121782 0.500858,1.135647 -1.568877,2.93213 -2.489436,2.160776 -3.962342,3.42973 -7.949716,3.070268 -2.982404,-0.268866 -3.79839,-0.423693 -4.481644,1.356413 -0.54221,1.412654 0.04967,2.759017 2.866087,5.633927 1.388813,1.417655 1.995217,2.333328 1.985586,3.229332 -0.0086,0.801835 -0.497344,1.587918 -1.575291,2.703913 -0.950414,0.983964 -1.494555,1.96275 -1.358622,2.17508 0.426481,0.666186 3.250185,2.093263 4.789191,2.093263 0.811186,0 2.342302,-0.223169 3.252845,-0.671621 1.540187,-0.75856 2.193943,-0.751718 2.193943,0.02296 0,0.613459 -4.848013,4.33681 -7.620573,4.329718 -0.504355,-0.0014 -1.984952,-0.391925 -3.290366,-0.852584 z"
     id="path60301" />
</svg>
