<?xml version="1.0" encoding="UTF-8" standalone="no"?>
<svg
   width="48"
   height="48"
   version="1.1"
   id="svg38"
   sodipodi:docname="Zoom.svg"
   inkscape:version="1.1 (c68e22c387, 2021-05-23)"
   xmlns:inkscape="http://www.inkscape.org/namespaces/inkscape"
   xmlns:sodipodi="http://sodipodi.sourceforge.net/DTD/sodipodi-0.dtd"
   xmlns:xlink="http://www.w3.org/1999/xlink"
   xmlns="http://www.w3.org/2000/svg"
   xmlns:svg="http://www.w3.org/2000/svg"
   xmlns:rdf="http://www.w3.org/1999/02/22-rdf-syntax-ns#"
   xmlns:cc="http://creativecommons.org/ns#"
   xmlns:dc="http://purl.org/dc/elements/1.1/">
  <metadata
     id="metadata46">
    <rdf:RDF>
      <cc:Work
         rdf:about="">
        <dc:format>image/svg+xml</dc:format>
        <dc:type
           rdf:resource="http://purl.org/dc/dcmitype/StillImage" />
      </cc:Work>
    </rdf:RDF>
  </metadata>
  <sodipodi:namedview
     pagecolor="#ffffff"
     bordercolor="#666666"
     borderopacity="1"
     objecttolerance="10"
     gridtolerance="10"
     guidetolerance="10"
     inkscape:pageopacity="0"
     inkscape:pageshadow="2"
     inkscape:window-width="1366"
     inkscape:window-height="708"
     id="namedview44"
     showgrid="false"
     inkscape:zoom="5.12"
     inkscape:cx="16.210938"
     inkscape:cy="21.875"
     inkscape:window-x="0"
     inkscape:window-y="0"
     inkscape:window-maximized="1"
     inkscape:current-layer="svg38"
     inkscape:pagecheckerboard="0" />
  <defs
     id="defs22">
    <linearGradient
       id="linearGradient853">
      <stop
         offset="0"
         id="stop849"
         stop-color="#f31d41"
         stop-opacity="1" />
      <stop
         offset="1"
         id="stop851"
         stop-color="#f24949"
         stop-opacity="1" />
    </linearGradient>
    <linearGradient
       id="linearGradient4488">
      <stop
         id="stop4490"
         offset="0"
         stop-color="#000"
         stop-opacity=".047" />
      <stop
         id="stop4492"
         offset="1"
         stop-color="#000"
         stop-opacity="0" />
    </linearGradient>
    <style
       id="style4511" />
    <style
       id="style4511-26" />
    <style
       id="style4511-9" />
    <style
       id="style4552" />
    <style
       id="style4511-2" />
    <linearGradient
       xlink:href="#linearGradient4488"
       id="linearGradient4540"
       gradientUnits="userSpaceOnUse"
       gradientTransform="translate(-62.889 1.994) scale(.3038)"
       x1="288.112"
       y1="141.785"
       x2="287.575"
       y2="79.008" />
    <style
       id="style4552-1" />
    <style
       id="style4552-3" />
    <style
       id="style4511-20" />
    <style
       id="style4552-2" />
    <style
       id="style4511-2-6" />
    <style
       id="style4511-7" />
    <style
       id="style4511-26-7" />
    <style
       id="style4511-9-1" />
    <style
       id="style4552-38" />
    <style
       id="style4511-2-8" />
    <style
       id="style4552-7" />
    <style
       id="style4552-6" />
    <style
       type="text/css"
       id="current-color-scheme" />
    <linearGradient
       id="b-3675"
       gradientUnits="userSpaceOnUse"
       x1="13.085"
       x2="28.809"
       xlink:href="#a-35"
       y1="1024.741"
       y2="1024.741"
       gradientTransform="translate(-14.91 -1865.543) scale(1.84351)" />
    <linearGradient
       id="a-35">
      <stop
         offset="0"
         stop-color="#f6fbff"
         id="stop2-629" />
      <stop
         offset="1"
         stop-color="#eaeff2"
         id="stop4-1" />
    </linearGradient>
    <linearGradient
       xlink:href="#linearGradient853"
       id="linearGradient855"
       x1="25.627"
       y1="41.695"
       x2="26.237"
       y2="7.729"
       gradientUnits="userSpaceOnUse" />
  </defs>
  <style
     id="style4485"
     type="text/css" />
  <path
     id="path4516"
     d="M2.75 26.22v1.67c0 9.573 5.583 17.281 17.146 17.281h6.93c15.132 0 17.836-11.322 17.836-17.282v-1.668c0 5.96-2.704 17.282-17.836 17.282h-6.93C8.333 43.503 2.75 35.795 2.75 26.22z"
     opacity="1"
     fill="url(#linearGradient4540)"
     fill-opacity="1"
     stroke="none"
     stroke-width="1.1"
     stroke-linecap="square"
     stroke-linejoin="bevel"
     stroke-miterlimit="4"
     stroke-dasharray="none"
     stroke-dashoffset="0"
     stroke-opacity=".078" />
  <path
     id="path4518"
     d="M19.363 2.742h8.495c13.908 0 16.804 11.247 16.804 17.282v7.124c0 5.96-2.704 17.282-17.836 17.282h-6.93C8.333 44.43 2.75 36.722 2.75 27.148v-7.124c0-9.574 5.47-17.282 16.613-17.282z"
     opacity="1"
     fill="url(#linearGradient855)"
     fill-opacity="1"
     stroke="#000"
     stroke-width=".334"
     stroke-linecap="square"
     stroke-linejoin="bevel"
     stroke-miterlimit="4"
     stroke-dasharray="none"
     stroke-dashoffset="0"
     stroke-opacity=".078"
     style="fill:#11b1f3;fill-opacity:1" />
  <style
     type="text/css"
     id="style4485-31" />
  <style
     id="style4485-35"
     type="text/css" />
  <style
     id="style4485-3"
     type="text/css" />
  <style
     type="text/css"
     id="style4485-0" />
  <style
     id="style4485-4"
     type="text/css" />
  <style
     id="style4485-5"
     type="text/css" />
  <rect
     style="opacity:0.2"
     width="40"
     height="40"
     x="64.765625"
     y="39.875"
     rx="12"
     ry="12"
     id="rect861" />
  <rect
     style="fill:#4992fd"
     width="40"
     height="40"
     x="64.765625"
     y="38.875"
     rx="12"
     ry="12"
     id="rect863" />
  <path
     style="opacity:0.2;fill:#ffffff"
     d="m 76.765625,38.875 c -6.648,0 -12,5.352 -12,12 v 1 c 0,-6.648 5.352,-12 12,-12 h 16 c 6.648,0 12.000005,5.352 12.000005,12 v -1 c 0,-6.648 -5.352005,-12 -12.000005,-12 z"
     id="path865" />
  <path
     style="opacity:0.2"
     d="m 74.265682,52.874747 c -0.831032,0 -1.500057,0.669 -1.500057,1.5 v 2.5 3 3 c 0,2.216 1.784067,4 4.000151,4 h 5.000189 5.000188 2.500094 c 0.831032,0 1.500057,-0.669 1.500057,-1.5 v -2.5 -3 -3 c 0,-2.216 -1.784067,-4 -4.000151,-4 h -5.000188 -5.000189 z m 22.547725,0.002 c -0.318631,-0.022 -0.681883,0.123944 -1.027383,0.445313 -1.214999,1.130136 -2.638913,2.082865 -3.634902,3.433593 -0.410154,0.556237 -0.381552,1.293759 -0.38478,1.986329 -0.0018,0.379995 0.0021,0.757818 0,1.132812 0.0021,0.374994 -0.0018,0.752818 0,1.132812 0.0032,0.692569 -0.02537,1.430092 0.38478,1.986329 0.995989,1.350728 2.419903,2.303457 3.634902,3.433593 0.3455,0.321369 0.708752,0.467313 1.027383,0.445313 0.531051,-0.03667 0.939489,-0.5399 0.939489,-1.472656 0,-1.826065 0.02864,-3.674305 0,-5.525391 0.02864,-1.851086 0,-3.699326 0,-5.525391 0,-0.932756 -0.408438,-1.435986 -0.939489,-1.472656 z"
     id="path867" />
  <path
     style="fill:#ffffff;stroke-width:1.14282"
     d="m 11.135008,15.586168 c -0.949723,0 -1.7143004,0.764549 -1.7143004,1.714236 v 2.857058 3.42847 3.428471 c 0,2.532497 2.0388734,4.571294 4.5714664,4.571294 h 5.714333 5.714332 2.857167 c 0.949722,0 1.7143,-0.764549 1.7143,-1.714236 v -2.857058 -3.428471 -3.42847 c 0,-2.532496 -2.038873,-4.571294 -4.571467,-4.571294 h -5.714332 -5.714333 z m 25.768069,0.0023 c -0.364139,-0.02514 -0.779271,0.141646 -1.174117,0.508914 -1.388529,1.291546 -3.015812,2.380347 -4.154051,3.923992 -0.468734,0.63568 -0.436047,1.478537 -0.439736,2.270022 -0.0021,0.434267 0.0024,0.866053 0,1.294605 0.0024,0.428551 -0.0021,0.860337 0,1.294603 0.0037,0.791485 -0.029,1.634343 0.439736,2.270024 1.138239,1.543643 2.765522,2.632445 4.154051,3.92399 0.394846,0.367268 0.809978,0.534057 1.174117,0.508914 0.606898,-0.04191 1.073669,-0.61701 1.073669,-1.682986 0,-2.086869 0.03273,-4.199081 0,-6.314545 0.03273,-2.115466 0,-4.227677 0,-6.314547 0,-1.065976 -0.466771,-1.641079 -1.073669,-1.682986 z"
     id="path869" />
</svg>
