<?xml version="1.0" encoding="UTF-8" standalone="no"?>
<svg
   width="48"
   height="48"
   version="1.1"
   id="svg38"
   sodipodi:docname="caffeine.svg"
   inkscape:version="1.1 (c68e22c387, 2021-05-23)"
   xmlns:inkscape="http://www.inkscape.org/namespaces/inkscape"
   xmlns:sodipodi="http://sodipodi.sourceforge.net/DTD/sodipodi-0.dtd"
   xmlns:xlink="http://www.w3.org/1999/xlink"
   xmlns="http://www.w3.org/2000/svg"
   xmlns:svg="http://www.w3.org/2000/svg"
   xmlns:rdf="http://www.w3.org/1999/02/22-rdf-syntax-ns#"
   xmlns:cc="http://creativecommons.org/ns#"
   xmlns:dc="http://purl.org/dc/elements/1.1/">
  <metadata
     id="metadata46">
    <rdf:RDF>
      <cc:Work
         rdf:about="">
        <dc:format>image/svg+xml</dc:format>
        <dc:type
           rdf:resource="http://purl.org/dc/dcmitype/StillImage" />
      </cc:Work>
    </rdf:RDF>
  </metadata>
  <sodipodi:namedview
     pagecolor="#ffffff"
     bordercolor="#666666"
     borderopacity="1"
     objecttolerance="10"
     gridtolerance="10"
     guidetolerance="10"
     inkscape:pageopacity="0"
     inkscape:pageshadow="2"
     inkscape:window-width="1366"
     inkscape:window-height="708"
     id="namedview44"
     showgrid="false"
     inkscape:zoom="7.1005308"
     inkscape:cx="16.055138"
     inkscape:cy="20.139339"
     inkscape:window-x="0"
     inkscape:window-y="0"
     inkscape:window-maximized="1"
     inkscape:current-layer="svg38"
     inkscape:pagecheckerboard="0" />
  <defs
     id="defs22">
    <linearGradient
       id="linearGradient853">
      <stop
         offset="0"
         id="stop849"
         stop-color="#f31d41"
         stop-opacity="1" />
      <stop
         offset="1"
         id="stop851"
         stop-color="#f24949"
         stop-opacity="1" />
    </linearGradient>
    <linearGradient
       id="linearGradient4488">
      <stop
         id="stop4490"
         offset="0"
         stop-color="#000"
         stop-opacity=".047" />
      <stop
         id="stop4492"
         offset="1"
         stop-color="#000"
         stop-opacity="0" />
    </linearGradient>
    <style
       id="style4511" />
    <style
       id="style4511-26" />
    <style
       id="style4511-9" />
    <style
       id="style4552" />
    <style
       id="style4511-2" />
    <linearGradient
       xlink:href="#linearGradient4488"
       id="linearGradient4540"
       gradientUnits="userSpaceOnUse"
       gradientTransform="translate(-62.889 1.994) scale(.3038)"
       x1="288.112"
       y1="141.785"
       x2="287.575"
       y2="79.008" />
    <style
       id="style4552-1" />
    <style
       id="style4552-3" />
    <style
       id="style4511-20" />
    <style
       id="style4552-2" />
    <style
       id="style4511-2-6" />
    <style
       id="style4511-7" />
    <style
       id="style4511-26-7" />
    <style
       id="style4511-9-1" />
    <style
       id="style4552-38" />
    <style
       id="style4511-2-8" />
    <style
       id="style4552-7" />
    <style
       id="style4552-6" />
    <style
       type="text/css"
       id="current-color-scheme" />
    <linearGradient
       id="b-3675"
       gradientUnits="userSpaceOnUse"
       x1="13.085"
       x2="28.809"
       xlink:href="#a-35"
       y1="1024.741"
       y2="1024.741"
       gradientTransform="translate(-14.91 -1865.543) scale(1.84351)" />
    <linearGradient
       id="a-35">
      <stop
         offset="0"
         stop-color="#f6fbff"
         id="stop2-629" />
      <stop
         offset="1"
         stop-color="#eaeff2"
         id="stop4-1" />
    </linearGradient>
    <linearGradient
       xlink:href="#linearGradient853"
       id="linearGradient855"
       x1="25.627"
       y1="41.695"
       x2="26.237"
       y2="7.729"
       gradientUnits="userSpaceOnUse" />
  </defs>
  <style
     id="style4485"
     type="text/css" />
  <path
     id="path4516"
     d="M2.75 26.22v1.67c0 9.573 5.583 17.281 17.146 17.281h6.93c15.132 0 17.836-11.322 17.836-17.282v-1.668c0 5.96-2.704 17.282-17.836 17.282h-6.93C8.333 43.503 2.75 35.795 2.75 26.22z"
     opacity="1"
     fill="url(#linearGradient4540)"
     fill-opacity="1"
     stroke="none"
     stroke-width="1.1"
     stroke-linecap="square"
     stroke-linejoin="bevel"
     stroke-miterlimit="4"
     stroke-dasharray="none"
     stroke-dashoffset="0"
     stroke-opacity=".078" />
  <path
     id="path4518"
     d="M19.363 2.742h8.495c13.908 0 16.804 11.247 16.804 17.282v7.124c0 5.96-2.704 17.282-17.836 17.282h-6.93C8.333 44.43 2.75 36.722 2.75 27.148v-7.124c0-9.574 5.47-17.282 16.613-17.282z"
     opacity="1"
     fill="url(#linearGradient855)"
     fill-opacity="1"
     stroke="#000"
     stroke-width=".334"
     stroke-linecap="square"
     stroke-linejoin="bevel"
     stroke-miterlimit="4"
     stroke-dasharray="none"
     stroke-dashoffset="0"
     stroke-opacity=".078"
     style="fill:#384958;fill-opacity:1" />
  <style
     type="text/css"
     id="style4485-31" />
  <style
     id="style4485-35"
     type="text/css" />
  <style
     id="style4485-3"
     type="text/css" />
  <style
     type="text/css"
     id="style4485-0" />
  <style
     id="style4485-4"
     type="text/css" />
  <style
     id="style4485-5"
     type="text/css" />
  <path
     style="fill:#ffffff;stroke-width:0.692308"
     d="m 37.610438,26.43589 c 0,6.230769 -4.153846,10.384615 -10.384615,10.384615 h -4.153846 c -6.23077,0 -9.885739,-3.251818 -10.299462,-8.307692 H 11.6489 c -3.1153849,0 -3.1153849,-3.115385 -3.1153849,-3.115385 v -2.076923 c 0,-3.115385 3.1153849,-3.115385 3.1153849,-3.115385 h 1.038461 24.923077 z M 11.6489,22.282043 c -1.038462,-0.06708 -1.070862,1.103366 -1.070862,1.103366 v 2.076923 c 0,0.973558 1.070862,0.973558 1.070862,0.973558 h 1.038461 l -0.02077,-4.121405 z"
     id="path37289" />
  <path
     style="fill:#ffffff;stroke-width:0.692308"
     d="m 25.550378,9.8205052 c -2.280877,2.2360478 -2.966262,3.3373678 -2.143592,4.7606358 0.745823,1.290158 2.674246,1.948008 1.705153,4.931672 1.591754,-1.453718 2.857431,-3.299827 1.607539,-4.789132 -1.271492,-1.514745 -1.968716,-2.434869 -1.1691,-4.9031758 z"
     id="path37299" />
  <path
     style="fill:#ffffff;stroke-width:0.692308"
     d="m 19.319609,9.8205052 c -2.280877,2.2360478 -2.966262,3.3373678 -2.143593,4.7606358 0.745823,1.290158 2.674246,1.948008 1.705154,4.931672 1.591754,-1.453718 2.857431,-3.299827 1.607539,-4.789132 -1.271493,-1.514745 -1.968716,-2.434869 -1.1691,-4.9031758 z"
     id="path37301" />
  <path
     style="fill:#ffffff;stroke-width:0.692308"
     d="m 31.781147,9.8205052 c -2.280877,2.2360478 -2.966261,3.3373678 -2.143592,4.7606358 0.745823,1.290158 2.674246,1.948008 1.705154,4.931672 1.591753,-1.453718 2.85743,-3.299827 1.607538,-4.789132 -1.271492,-1.514745 -1.968715,-2.434869 -1.1691,-4.9031758 z"
     id="path37303" />
</svg>
