<?xml version="1.0" encoding="UTF-8" standalone="no"?>
<svg
   width="48"
   height="48"
   version="1.1"
   id="svg38"
   sodipodi:docname="franz.svg"
   inkscape:version="1.1 (c68e22c387, 2021-05-23)"
   xmlns:inkscape="http://www.inkscape.org/namespaces/inkscape"
   xmlns:sodipodi="http://sodipodi.sourceforge.net/DTD/sodipodi-0.dtd"
   xmlns:xlink="http://www.w3.org/1999/xlink"
   xmlns="http://www.w3.org/2000/svg"
   xmlns:svg="http://www.w3.org/2000/svg"
   xmlns:rdf="http://www.w3.org/1999/02/22-rdf-syntax-ns#"
   xmlns:cc="http://creativecommons.org/ns#"
   xmlns:dc="http://purl.org/dc/elements/1.1/">
  <metadata
     id="metadata46">
    <rdf:RDF>
      <cc:Work
         rdf:about="">
        <dc:format>image/svg+xml</dc:format>
        <dc:type
           rdf:resource="http://purl.org/dc/dcmitype/StillImage" />
      </cc:Work>
    </rdf:RDF>
  </metadata>
  <sodipodi:namedview
     pagecolor="#ffffff"
     bordercolor="#666666"
     borderopacity="1"
     objecttolerance="10"
     gridtolerance="10"
     guidetolerance="10"
     inkscape:pageopacity="0"
     inkscape:pageshadow="2"
     inkscape:window-width="1366"
     inkscape:window-height="708"
     id="namedview44"
     showgrid="false"
     inkscape:zoom="2.56"
     inkscape:cx="46.484375"
     inkscape:cy="65.234375"
     inkscape:window-x="0"
     inkscape:window-y="0"
     inkscape:window-maximized="1"
     inkscape:current-layer="svg38"
     inkscape:pagecheckerboard="0" />
  <defs
     id="defs22">
    <linearGradient
       id="linearGradient853">
      <stop
         offset="0"
         id="stop849"
         stop-color="#f31d41"
         stop-opacity="1" />
      <stop
         offset="1"
         id="stop851"
         stop-color="#f24949"
         stop-opacity="1" />
    </linearGradient>
    <linearGradient
       id="linearGradient4488">
      <stop
         id="stop4490"
         offset="0"
         stop-color="#000"
         stop-opacity=".047" />
      <stop
         id="stop4492"
         offset="1"
         stop-color="#000"
         stop-opacity="0" />
    </linearGradient>
    <style
       id="style4511" />
    <style
       id="style4511-26" />
    <style
       id="style4511-9" />
    <style
       id="style4552" />
    <style
       id="style4511-2" />
    <linearGradient
       xlink:href="#linearGradient4488"
       id="linearGradient4540"
       gradientUnits="userSpaceOnUse"
       gradientTransform="translate(-62.889 1.994) scale(.3038)"
       x1="288.112"
       y1="141.785"
       x2="287.575"
       y2="79.008" />
    <style
       id="style4552-1" />
    <style
       id="style4552-3" />
    <style
       id="style4511-20" />
    <style
       id="style4552-2" />
    <style
       id="style4511-2-6" />
    <style
       id="style4511-7" />
    <style
       id="style4511-26-7" />
    <style
       id="style4511-9-1" />
    <style
       id="style4552-38" />
    <style
       id="style4511-2-8" />
    <style
       id="style4552-7" />
    <style
       id="style4552-6" />
    <style
       type="text/css"
       id="current-color-scheme" />
    <linearGradient
       id="b-3675"
       gradientUnits="userSpaceOnUse"
       x1="13.085"
       x2="28.809"
       xlink:href="#a-35"
       y1="1024.741"
       y2="1024.741"
       gradientTransform="translate(-14.91 -1865.543) scale(1.84351)" />
    <linearGradient
       id="a-35">
      <stop
         offset="0"
         stop-color="#f6fbff"
         id="stop2-629" />
      <stop
         offset="1"
         stop-color="#eaeff2"
         id="stop4-1" />
    </linearGradient>
    <linearGradient
       xlink:href="#linearGradient853"
       id="linearGradient855"
       x1="25.627"
       y1="41.695"
       x2="26.237"
       y2="7.729"
       gradientUnits="userSpaceOnUse" />
  </defs>
  <style
     id="style4485"
     type="text/css" />
  <path
     id="path4516"
     d="M2.75 26.22v1.67c0 9.573 5.583 17.281 17.146 17.281h6.93c15.132 0 17.836-11.322 17.836-17.282v-1.668c0 5.96-2.704 17.282-17.836 17.282h-6.93C8.333 43.503 2.75 35.795 2.75 26.22z"
     opacity="1"
     fill="url(#linearGradient4540)"
     fill-opacity="1"
     stroke="none"
     stroke-width="1.1"
     stroke-linecap="square"
     stroke-linejoin="bevel"
     stroke-miterlimit="4"
     stroke-dasharray="none"
     stroke-dashoffset="0"
     stroke-opacity=".078" />
  <path
     id="path4518"
     d="M19.363 2.742h8.495c13.908 0 16.804 11.247 16.804 17.282v7.124c0 5.96-2.704 17.282-17.836 17.282h-6.93C8.333 44.43 2.75 36.722 2.75 27.148v-7.124c0-9.574 5.47-17.282 16.613-17.282z"
     opacity="1"
     fill="url(#linearGradient855)"
     fill-opacity="1"
     stroke="#000"
     stroke-width=".334"
     stroke-linecap="square"
     stroke-linejoin="bevel"
     stroke-miterlimit="4"
     stroke-dasharray="none"
     stroke-dashoffset="0"
     stroke-opacity=".078"
     style="fill:#11b1f3;fill-opacity:1" />
  <style
     type="text/css"
     id="style4485-31" />
  <style
     id="style4485-35"
     type="text/css" />
  <style
     id="style4485-3"
     type="text/css" />
  <style
     type="text/css"
     id="style4485-0" />
  <style
     id="style4485-4"
     type="text/css" />
  <style
     id="style4485-5"
     type="text/css" />
  <path
     fill="#ffffff"
     d="m 11.439685,13.587569 c -0.104,-0.014 -0.217,0.067 -0.351,0.217 -0.219,0.245 -0.268,0.888 -0.338,4.412 -0.045,2.268 -0.058,4.184 -0.029,4.256 0.162,0.403 2.005,-0.343 2.658,-1.076 l 0.326,-0.368 -0.402,-0.769 c -0.261,-0.5 -0.558,-1.616 -0.848,-3.182 -0.471,-2.539 -0.703,-3.447 -1.016,-3.49 z m 24.674,0 c -0.093,-0.017 -0.207,0.08 -0.353,0.246 -0.215,0.244 -0.413,0.967 -0.676,2.467 -0.441,2.515 -0.73,3.567 -1.145,4.166 -0.168,0.243 -0.269,0.549 -0.224,0.681 0.116,0.345 0.765,0.793 1.656,1.143 0.921,0.362 1.246,0.386 1.324,0.1 0.032,-0.118 -0.012,-2.072 -0.097,-4.344 -0.125,-3.328 -0.206,-4.407 -0.485,-4.459 z m -16.637,4.998 c -0.328,0.001 -0.599,0.082 -0.875,0.234 -0.325,0.181 -1.537,1.31 -2.691,2.51 -1.754,1.824 -2.268,2.251 -3.135,2.598 -1.364,0.546 -2.511,0.677 -3.4547997,0.394 -1.2814,-0.384 -1.9747,0.334 -1.4238,1.475 0.5253,1.087 2.6235997,2.073 5.4065997,2.539 3.863,0.646 6.421,0.046 9.136,-2.141 0.521,-0.419 1.098,-0.761 1.284,-0.761 0.185,0 0.816,0.386 1.402,0.857 1.391,1.12 2.069,1.477 3.719,1.963 1.173,0.346 1.63,0.384 3.281,0.281 3.47,-0.217 5.791,-0.949 7.014,-2.215 0.411,-0.426 0.566,-0.752 0.566,-1.195 0,-0.887 -0.479,-1.113 -1.701,-0.799 -0.742,0.191 -1.157,0.197 -1.904,0.03 -1.83,-0.411 -2.656,-0.974 -4.79,-3.264 -2.65,-2.845 -2.809,-2.905 -5.359,-1.947 -1.014,0.38 -2.057,0.693 -2.318,0.693 -0.261,0 -1.065,-0.252 -1.785,-0.559 -1.124,-0.477 -1.825,-0.695 -2.372,-0.693 z m 17.008,11.002 c -0.063,0.006 -0.143,0.022 -0.246,0.049 -1.244,0.32 -2.535,0.496 -4.412,0.597 l -2.055,0.112 -0.05,1.183 c -0.046,1.066 -0.009,1.23 0.377,1.625 0.396,0.407 0.545,0.439 2.019,0.432 1.657,-0.008 2.644,-0.255 3.254,-0.811 0.449,-0.409 1.334,-2.295 1.334,-2.843 0,-0.273 -0.032,-0.361 -0.221,-0.344 z m -25.765,0.016 c -0.051,0.055 0.043,0.567 0.209,1.138 0.363,1.251 1.142,2.221 2.07,2.576 0.923,0.354 3.382,0.359 4.008,0.008 0.5,-0.28 0.699,-0.866 0.699,-2.058 0,-1.176 -0.037,-1.199 -1.943,-1.2 -0.955,0 -2.46,-0.127 -3.344,-0.283 -0.884,-0.155 -1.649,-0.236 -1.699,-0.181 z"
     id="path1143" />
</svg>
