<?xml version="1.0" encoding="UTF-8" standalone="no"?>
<svg
   width="48"
   height="48"
   version="1.1"
   id="svg38"
   sodipodi:docname="kmenuedit.svg"
   inkscape:version="1.1 (c68e22c387, 2021-05-23)"
   xmlns:inkscape="http://www.inkscape.org/namespaces/inkscape"
   xmlns:sodipodi="http://sodipodi.sourceforge.net/DTD/sodipodi-0.dtd"
   xmlns:xlink="http://www.w3.org/1999/xlink"
   xmlns="http://www.w3.org/2000/svg"
   xmlns:svg="http://www.w3.org/2000/svg"
   xmlns:rdf="http://www.w3.org/1999/02/22-rdf-syntax-ns#"
   xmlns:cc="http://creativecommons.org/ns#"
   xmlns:dc="http://purl.org/dc/elements/1.1/">
  <metadata
     id="metadata46">
    <rdf:RDF>
      <cc:Work
         rdf:about="">
        <dc:format>image/svg+xml</dc:format>
        <dc:type
           rdf:resource="http://purl.org/dc/dcmitype/StillImage" />
      </cc:Work>
    </rdf:RDF>
  </metadata>
  <sodipodi:namedview
     pagecolor="#ffffff"
     bordercolor="#666666"
     borderopacity="1"
     objecttolerance="10"
     gridtolerance="10"
     guidetolerance="10"
     inkscape:pageopacity="0"
     inkscape:pageshadow="2"
     inkscape:window-width="1366"
     inkscape:window-height="708"
     id="namedview44"
     showgrid="false"
     inkscape:zoom="5.0208335"
     inkscape:cx="46.605808"
     inkscape:cy="7.1701242"
     inkscape:window-x="0"
     inkscape:window-y="0"
     inkscape:window-maximized="1"
     inkscape:current-layer="svg38"
     inkscape:pagecheckerboard="0" />
  <defs
     id="defs22">
    <linearGradient
       id="linearGradient853">
      <stop
         offset="0"
         id="stop849"
         stop-color="#f31d41"
         stop-opacity="1" />
      <stop
         offset="1"
         id="stop851"
         stop-color="#f24949"
         stop-opacity="1" />
    </linearGradient>
    <linearGradient
       id="linearGradient4488">
      <stop
         id="stop4490"
         offset="0"
         stop-color="#000"
         stop-opacity=".047" />
      <stop
         id="stop4492"
         offset="1"
         stop-color="#000"
         stop-opacity="0" />
    </linearGradient>
    <style
       id="style4511" />
    <style
       id="style4511-26" />
    <style
       id="style4511-9" />
    <style
       id="style4552" />
    <style
       id="style4511-2" />
    <linearGradient
       xlink:href="#linearGradient4488"
       id="linearGradient4540"
       gradientUnits="userSpaceOnUse"
       gradientTransform="translate(-62.889 1.994) scale(.3038)"
       x1="288.112"
       y1="141.785"
       x2="287.575"
       y2="79.008" />
    <style
       id="style4552-1" />
    <style
       id="style4552-3" />
    <style
       id="style4511-20" />
    <style
       id="style4552-2" />
    <style
       id="style4511-2-6" />
    <style
       id="style4511-7" />
    <style
       id="style4511-26-7" />
    <style
       id="style4511-9-1" />
    <style
       id="style4552-38" />
    <style
       id="style4511-2-8" />
    <style
       id="style4552-7" />
    <style
       id="style4552-6" />
    <style
       type="text/css"
       id="current-color-scheme" />
    <linearGradient
       id="b-3675"
       gradientUnits="userSpaceOnUse"
       x1="13.085"
       x2="28.809"
       xlink:href="#a-35"
       y1="1024.741"
       y2="1024.741"
       gradientTransform="translate(-14.91 -1865.543) scale(1.84351)" />
    <linearGradient
       id="a-35">
      <stop
         offset="0"
         stop-color="#f6fbff"
         id="stop2-629" />
      <stop
         offset="1"
         stop-color="#eaeff2"
         id="stop4-1" />
    </linearGradient>
    <linearGradient
       xlink:href="#linearGradient853"
       id="linearGradient855"
       x1="25.627"
       y1="41.695"
       x2="26.237"
       y2="7.729"
       gradientUnits="userSpaceOnUse" />
  </defs>
  <style
     id="style4485"
     type="text/css" />
  <path
     id="path4516"
     d="M2.75 26.22v1.67c0 9.573 5.583 17.281 17.146 17.281h6.93c15.132 0 17.836-11.322 17.836-17.282v-1.668c0 5.96-2.704 17.282-17.836 17.282h-6.93C8.333 43.503 2.75 35.795 2.75 26.22z"
     opacity="1"
     fill="url(#linearGradient4540)"
     fill-opacity="1"
     stroke="none"
     stroke-width="1.1"
     stroke-linecap="square"
     stroke-linejoin="bevel"
     stroke-miterlimit="4"
     stroke-dasharray="none"
     stroke-dashoffset="0"
     stroke-opacity=".078" />
  <path
     id="path4518"
     d="M19.363 2.742h8.495c13.908 0 16.804 11.247 16.804 17.282v7.124c0 5.96-2.704 17.282-17.836 17.282h-6.93C8.333 44.43 2.75 36.722 2.75 27.148v-7.124c0-9.574 5.47-17.282 16.613-17.282z"
     opacity="1"
     fill="url(#linearGradient855)"
     fill-opacity="1"
     stroke="#000"
     stroke-width=".334"
     stroke-linecap="square"
     stroke-linejoin="bevel"
     stroke-miterlimit="4"
     stroke-dasharray="none"
     stroke-dashoffset="0"
     stroke-opacity=".078"
     style="fill:#0c967c;fill-opacity:1" />
  <style
     type="text/css"
     id="style4485-31" />
  <style
     id="style4485-35"
     type="text/css" />
  <style
     id="style4485-3"
     type="text/css" />
  <style
     type="text/css"
     id="style4485-0" />
  <style
     id="style4485-4"
     type="text/css" />
  <style
     id="style4485-5"
     type="text/css" />
  <g
     id="g36885"
     transform="translate(1.1347595,-1.457304)">
    <path
       style="fill:#ffffff;stroke-width:0.642857"
       d="m 12.186625,11.543304 h 20.769232 c 0.657494,0 1.186812,0.530164 1.186812,1.191086 v 21.474386 c 0,0.660986 -0.529318,1.120243 -1.186812,1.120243 H 19.356955 l -2.571429,3.214285 -2.571428,-3.214285 h -2.027473 c -0.657494,0 -1.186813,-0.459257 -1.186813,-1.120243 V 12.73439 c 0,-0.660922 0.529319,-1.191086 1.186813,-1.191086 z"
       id="path12346" />
    <path
       style="fill:#0c967c;fill-opacity:1;stroke-width:0.642857"
       d="m 14.683685,21.829018 c -0.254699,0 -0.469587,0.216143 -0.469587,0.470843 v 1.630999 c 0,0.2547 0.214888,0.469587 0.469587,0.469587 h 1.632254 c 0.254699,0 0.469587,-0.214887 0.469587,-0.469587 v -1.630999 c 0,-0.2547 -0.214888,-0.470843 -0.469587,-0.470843 z"
       id="path12354" />
    <path
       style="fill:#0c967c;fill-opacity:1;stroke-width:0.642857"
       d="m 14.683685,15.400447 c -0.254699,0 -0.469587,0.216143 -0.469587,0.470843 v 1.630998 c 0,0.2547 0.214888,0.469588 0.469587,0.469588 h 1.632254 c 0.254699,0 0.469587,-0.214888 0.469587,-0.469588 V 15.87129 c 0,-0.2547 -0.214888,-0.470843 -0.469587,-0.470843 z"
       id="path12356" />
    <path
       style="fill:#8064f4;fill-opacity:1;stroke:#0c967c;stroke-width:2.57143;stroke-linecap:round"
       d="m 20.642669,23.114733 h 9"
       id="path12360" />
    <path
       style="fill:#0c967c;fill-opacity:1;stroke:#0c967c;stroke-width:2.57143;stroke-linecap:round;stroke-opacity:1"
       d="m 20.642669,16.686161 h 9"
       id="path12362" />
    <path
       style="fill:#0c967c;fill-opacity:1;stroke-width:0.642857"
       d="m 14.683685,28.25759 c -0.254699,0 -0.469587,0.216143 -0.469587,0.470843 v 1.630998 c 0,0.2547 0.214888,0.469588 0.469587,0.469588 h 1.632254 c 0.254699,0 0.469587,-0.214888 0.469587,-0.469588 v -1.630998 c 0,-0.2547 -0.214888,-0.470843 -0.469587,-0.470843 z"
       id="path12364" />
    <path
       style="fill:#0c967c;fill-opacity:1;stroke:#0c967c;stroke-width:2.57143;stroke-linecap:round;stroke-opacity:1"
       d="m 20.642669,29.543304 h 9"
       id="path12366" />
  </g>
</svg>
