<?xml version="1.0" encoding="UTF-8" standalone="no"?>
<svg
   width="48"
   height="48"
   version="1.1"
   id="svg38"
   sodipodi:docname="postman.svg"
   inkscape:version="1.1 (c68e22c387, 2021-05-23)"
   xmlns:inkscape="http://www.inkscape.org/namespaces/inkscape"
   xmlns:sodipodi="http://sodipodi.sourceforge.net/DTD/sodipodi-0.dtd"
   xmlns:xlink="http://www.w3.org/1999/xlink"
   xmlns="http://www.w3.org/2000/svg"
   xmlns:svg="http://www.w3.org/2000/svg"
   xmlns:rdf="http://www.w3.org/1999/02/22-rdf-syntax-ns#"
   xmlns:cc="http://creativecommons.org/ns#"
   xmlns:dc="http://purl.org/dc/elements/1.1/">
  <metadata
     id="metadata46">
    <rdf:RDF>
      <cc:Work
         rdf:about="">
        <dc:format>image/svg+xml</dc:format>
        <dc:type
           rdf:resource="http://purl.org/dc/dcmitype/StillImage" />
      </cc:Work>
    </rdf:RDF>
  </metadata>
  <sodipodi:namedview
     pagecolor="#ffffff"
     bordercolor="#666666"
     borderopacity="1"
     objecttolerance="10"
     gridtolerance="10"
     guidetolerance="10"
     inkscape:pageopacity="0"
     inkscape:pageshadow="2"
     inkscape:window-width="1366"
     inkscape:window-height="700"
     id="namedview44"
     showgrid="false"
     inkscape:zoom="7.1005306"
     inkscape:cx="22.392693"
     inkscape:cy="23.2377"
     inkscape:window-x="0"
     inkscape:window-y="0"
     inkscape:window-maximized="1"
     inkscape:current-layer="svg38"
     inkscape:pagecheckerboard="0" />
  <defs
     id="defs22">
    <linearGradient
       id="linearGradient4488">
      <stop
         id="stop4490"
         offset="0"
         stop-color="#000"
         stop-opacity=".047" />
      <stop
         id="stop4492"
         offset="1"
         stop-color="#000"
         stop-opacity="0" />
    </linearGradient>
    <style
       id="style4511" />
    <style
       id="style4511-26" />
    <style
       id="style4511-9" />
    <style
       id="style4552" />
    <style
       id="style4511-2" />
    <linearGradient
       xlink:href="#linearGradient4488"
       id="linearGradient4540"
       gradientUnits="userSpaceOnUse"
       gradientTransform="matrix(.30673 0 0 .3038 -63.522 1.994)"
       x1="288.112"
       y1="141.785"
       x2="287.575"
       y2="79.008" />
    <linearGradient
       id="linearGradient5293"
       inkscape:swatch="solid">
      <stop
         id="stop5295"
         offset="0"
         stop-color="#9a89c0"
         stop-opacity="1" />
    </linearGradient>
    <linearGradient
       id="linearGradient7537">
      <stop
         id="stop7539"
         offset="0"
         stop-color="#f37e40"
         stop-opacity="1" />
      <stop
         id="stop7541"
         offset="1"
         stop-color="#f34f17"
         stop-opacity="1" />
    </linearGradient>
    <linearGradient
       id="linearGradient5251"
       inkscape:swatch="solid">
      <stop
         id="stop5253"
         offset="0"
         stop-color="#2f343f"
         stop-opacity="1" />
    </linearGradient>
    <linearGradient
       xlink:href="#linearGradient7537"
       id="linearGradient1455"
       x1="2.583"
       y1="23.739"
       x2="45.236"
       y2="23.739"
       gradientUnits="userSpaceOnUse"
       gradientTransform="rotate(90 23.91 23.739)" />
  </defs>
  <style
     id="style4485"
     type="text/css" />
  <path
     id="path4516"
     d="M2.75 26.22v1.669c0 9.574 5.638 17.282 17.312 17.282h6.998c15.278 0 18.008-11.323 18.008-17.282V26.22c0 5.96-2.73 17.282-18.008 17.282h-6.998c-11.674 0-17.311-7.708-17.311-17.282z"
     opacity="1"
     fill="url(#linearGradient4540)"
     fill-opacity="1"
     stroke="none"
     stroke-width="1.105"
     stroke-linecap="square"
     stroke-linejoin="bevel"
     stroke-miterlimit="4"
     stroke-dasharray="none"
     stroke-dashoffset="0"
     stroke-opacity=".078" />
  <path
     id="path4518"
     d="M44.905 19.354v8.576c0 14.042-11.329 16.967-17.408 16.967h-7.175c-6.003 0-17.407-2.73-17.407-18.009v-6.996c0-11.674 7.763-17.311 17.407-17.311h7.175c9.644 0 17.408 5.522 17.408 16.773z"
     opacity="1"
     fill="url(#linearGradient1455)"
     fill-opacity="1"
     stroke="#000"
     stroke-width=".337"
     stroke-linecap="square"
     stroke-linejoin="bevel"
     stroke-miterlimit="4"
     stroke-dasharray="none"
     stroke-dashoffset="0"
     stroke-opacity=".078"
     style="fill:#ff7b22;fill-opacity:1" />
  <path
     style="fill:#ffffff;stroke-width:2.7"
     d="m 33.933418,10.24202 c -0.793727,0.03383 -1.576557,0.351135 -2.191484,0.946561 -1.35017,1.31265 -1.402437,3.47937 -0.10576,4.846151 l -0.01458,-0.02727 c 1.01597,1.055532 2.593965,1.325375 3.904033,0.675818 l -2.326282,-2.340173 c -0.08022,-0.09472 -0.08022,-0.23058 0,-0.325316 l 2.993976,-3.018106 c -0.661718,-0.541293 -1.466175,-0.791496 -2.259902,-0.757663 z m 2.581265,1.068293 -2.84665,2.883762 2.23295,2.25832 c 0.187137,-0.121797 0.347544,-0.268812 0.507959,-0.417663 1.296702,-1.299118 1.335598,-3.384703 0.10576,-4.724419 z m -0.153414,1.735714 c 0.07115,-2.7e-4 0.138591,0.03313 0.180359,0.09234 0.240598,0.460104 0.174555,1.013758 -0.159623,1.4062 -0.0401,0.05414 -0.121852,0.09445 -0.18865,0.09445 -0.05346,0.0135 -0.12069,0.0135 -0.174149,0 l -0.01242,-0.01269 c -0.09358,-0.09471 -0.08114,-0.257877 0.01242,-0.3526 0.200528,-0.230041 0.22904,-0.566774 0.09536,-0.837425 0,-0.0135 -0.01458,-0.01377 -0.01458,-0.02727 -0.05346,-0.121797 0.01431,-0.271185 0.134785,-0.325314 0.04009,-0.02538 0.08378,-0.03761 0.126467,-0.03777 z m -6.680197,2.367457 c -1.435603,-0.117342 -3.793842,1.468511 -9.889664,7.629167 l 1.764383,1.788186 8.262117,-8.363751 c 0.294095,-0.297716 0.682368,-0.460804 1.096778,-0.474331 -0.377646,-0.311248 -0.755085,-0.540154 -1.233614,-0.579271 z m 1.258495,1.097676 c -0.294096,0 -0.58755,0.11043 -0.814806,0.333709 l -8.23517,8.281902 1.10922,1.177429 8.703732,-7.767691 c 0.240651,-0.216513 0.374339,-0.512644 0.387704,-0.837424 0.0135,-0.311246 -0.106542,-0.624162 -0.333801,-0.854216 C 31.529187,16.62158 31.233662,16.51116 30.939567,16.51116 Z m 1.283377,2.094611 c -0.06683,0.09471 -0.145774,0.175798 -0.22599,0.243459 l -8.703741,7.752998 1.550832,1.56991 c 3.596004,-3.477845 7.098166,-7.04933 7.378899,-9.566369 z m -12.752898,4.707628 -2.179043,2.205846 -0.0394,0.05456 c -0.0401,0.04061 -0.05276,0.0823 -0.0394,0.136431 0.0135,0.08121 0.09188,0.13527 0.172098,0.121743 l 3.729875,-0.812235 z m 2.112698,2.205846 -1.243984,1.259285 c -0.02673,0.04061 -0.02673,0.09582 0,0.136431 0.0401,0.02706 0.08013,0.02706 0.120259,0 l 2.046351,-0.5289 z m 1.310326,1.286571 -3.381557,0.730386 -6.978744,7.077179 2.272342,2.369555 c 0.06683,0.06766 0.187245,0.06766 0.267462,0 0.08019,-0.05411 0.134541,-0.162486 0.107811,-0.270759 l -0.375268,-1.624466 c -0.04009,-0.189458 0.05427,-0.379606 0.228069,-0.47433 h 0.01242 v -0.02727 c 3.395498,-1.637453 6.577158,-3.707388 9.464652,-6.143233 z m -10.721056,8.145475 -1.751943,1.788183 c -0.0135,0.0406 -0.0135,0.09277 0,0.146934 0.0135,0.04061 0.06677,0.08303 0.120258,0.09655 l 3.904033,0.256041 z"
     id="path873" />
</svg>
