<?xml version="1.0" encoding="UTF-8" standalone="no"?>
<svg
   width="48"
   height="48"
   version="1.1"
   id="svg38"
   sodipodi:docname="rocketchat.svg"
   inkscape:version="1.1 (c68e22c387, 2021-05-23)"
   xmlns:inkscape="http://www.inkscape.org/namespaces/inkscape"
   xmlns:sodipodi="http://sodipodi.sourceforge.net/DTD/sodipodi-0.dtd"
   xmlns:xlink="http://www.w3.org/1999/xlink"
   xmlns="http://www.w3.org/2000/svg"
   xmlns:svg="http://www.w3.org/2000/svg"
   xmlns:rdf="http://www.w3.org/1999/02/22-rdf-syntax-ns#"
   xmlns:cc="http://creativecommons.org/ns#"
   xmlns:dc="http://purl.org/dc/elements/1.1/">
  <metadata
     id="metadata46">
    <rdf:RDF>
      <cc:Work
         rdf:about="">
        <dc:format>image/svg+xml</dc:format>
        <dc:type
           rdf:resource="http://purl.org/dc/dcmitype/StillImage" />
      </cc:Work>
    </rdf:RDF>
  </metadata>
  <sodipodi:namedview
     pagecolor="#ffffff"
     bordercolor="#666666"
     borderopacity="1"
     objecttolerance="10"
     gridtolerance="10"
     guidetolerance="10"
     inkscape:pageopacity="0"
     inkscape:pageshadow="2"
     inkscape:window-width="1366"
     inkscape:window-height="708"
     id="namedview44"
     showgrid="false"
     inkscape:zoom="5.12"
     inkscape:cx="4.4921875"
     inkscape:cy="30.859375"
     inkscape:window-x="0"
     inkscape:window-y="0"
     inkscape:window-maximized="1"
     inkscape:current-layer="svg38"
     inkscape:pagecheckerboard="0" />
  <defs
     id="defs22">
    <linearGradient
       id="linearGradient853">
      <stop
         offset="0"
         id="stop849"
         stop-color="#f31d41"
         stop-opacity="1" />
      <stop
         offset="1"
         id="stop851"
         stop-color="#f24949"
         stop-opacity="1" />
    </linearGradient>
    <linearGradient
       id="linearGradient4488">
      <stop
         id="stop4490"
         offset="0"
         stop-color="#000"
         stop-opacity=".047" />
      <stop
         id="stop4492"
         offset="1"
         stop-color="#000"
         stop-opacity="0" />
    </linearGradient>
    <style
       id="style4511" />
    <style
       id="style4511-26" />
    <style
       id="style4511-9" />
    <style
       id="style4552" />
    <style
       id="style4511-2" />
    <linearGradient
       xlink:href="#linearGradient4488"
       id="linearGradient4540"
       gradientUnits="userSpaceOnUse"
       gradientTransform="translate(-62.889 1.994) scale(.3038)"
       x1="288.112"
       y1="141.785"
       x2="287.575"
       y2="79.008" />
    <style
       id="style4552-1" />
    <style
       id="style4552-3" />
    <style
       id="style4511-20" />
    <style
       id="style4552-2" />
    <style
       id="style4511-2-6" />
    <style
       id="style4511-7" />
    <style
       id="style4511-26-7" />
    <style
       id="style4511-9-1" />
    <style
       id="style4552-38" />
    <style
       id="style4511-2-8" />
    <style
       id="style4552-7" />
    <style
       id="style4552-6" />
    <style
       type="text/css"
       id="current-color-scheme" />
    <linearGradient
       id="b-3675"
       gradientUnits="userSpaceOnUse"
       x1="13.085"
       x2="28.809"
       xlink:href="#a-35"
       y1="1024.741"
       y2="1024.741"
       gradientTransform="translate(-14.91 -1865.543) scale(1.84351)" />
    <linearGradient
       id="a-35">
      <stop
         offset="0"
         stop-color="#f6fbff"
         id="stop2-629" />
      <stop
         offset="1"
         stop-color="#eaeff2"
         id="stop4-1" />
    </linearGradient>
    <linearGradient
       xlink:href="#linearGradient853"
       id="linearGradient855"
       x1="25.627"
       y1="41.695"
       x2="26.237"
       y2="7.729"
       gradientUnits="userSpaceOnUse" />
  </defs>
  <style
     id="style4485"
     type="text/css" />
  <path
     id="path4516"
     d="M2.75 26.22v1.67c0 9.573 5.583 17.281 17.146 17.281h6.93c15.132 0 17.836-11.322 17.836-17.282v-1.668c0 5.96-2.704 17.282-17.836 17.282h-6.93C8.333 43.503 2.75 35.795 2.75 26.22z"
     opacity="1"
     fill="url(#linearGradient4540)"
     fill-opacity="1"
     stroke="none"
     stroke-width="1.1"
     stroke-linecap="square"
     stroke-linejoin="bevel"
     stroke-miterlimit="4"
     stroke-dasharray="none"
     stroke-dashoffset="0"
     stroke-opacity=".078" />
  <path
     id="path4518"
     d="M19.363 2.742h8.495c13.908 0 16.804 11.247 16.804 17.282v7.124c0 5.96-2.704 17.282-17.836 17.282h-6.93C8.333 44.43 2.75 36.722 2.75 27.148v-7.124c0-9.574 5.47-17.282 16.613-17.282z"
     opacity="1"
     fill="url(#linearGradient855)"
     fill-opacity="1"
     stroke="#000"
     stroke-width=".334"
     stroke-linecap="square"
     stroke-linejoin="bevel"
     stroke-miterlimit="4"
     stroke-dasharray="none"
     stroke-dashoffset="0"
     stroke-opacity=".078"
     style="fill:#e53d35;fill-opacity:1" />
  <style
     type="text/css"
     id="style4485-31" />
  <style
     id="style4485-35"
     type="text/css" />
  <style
     id="style4485-3"
     type="text/css" />
  <style
     type="text/css"
     id="style4485-0" />
  <style
     id="style4485-4"
     type="text/css" />
  <style
     id="style4485-5"
     type="text/css" />
  <path
     style="fill:#ffffff;stroke-width:0.675"
     d="m 24.618029,23.192768 c 0,7.455844 -6.044156,13.5 -13.5,13.5 4.05,-4.725 3.375,-22.275 0,-27.0000004 7.455844,0 13.5,6.0441564 13.5,13.5000004 z"
     id="path863" />
  <ellipse
     style="fill:#ffffff;stroke-width:0.675"
     cx="25.293028"
     cy="23.192766"
     rx="14.175"
     ry="9.4499998"
     id="ellipse865" />
  <path
     style="fill:#e53d35;stroke-width:0.675"
     d="m 25.293029,15.767768 c -3.549522,0 -6.730624,0.980686 -8.900245,2.4271 -2.168046,1.445364 -3.248189,3.20653 -3.249755,4.993945 0.0047,1.306291 0.587404,2.649261 1.920849,3.924756 a 2.0252025,2.0252025 0 0 1 0.613037,1.676953 c -0.199928,1.879505 -0.486484,3.649868 -0.968994,5.236523 1.900048,-0.634079 3.601367,-1.697775 4.920118,-3.158789 a 2.0252025,2.0252025 0 0 1 1.910302,-0.627539 c 1.210165,0.24825 2.478228,0.376645 3.754688,0.377051 3.549521,0 6.730623,-0.980686 8.900244,-2.4271 2.169621,-1.446413 3.249756,-3.209148 3.249756,-4.9979 0,-1.788752 -1.080135,-3.551487 -3.249756,-4.9979 -2.169621,-1.446414 -5.350723,-2.4271 -8.900244,-2.4271 z"
     id="path869" />
  <g
     style="fill:#ffffff"
     id="g885"
     transform="matrix(0.675,0,0,0.675,9.0930292,6.9927676)">
    <circle
       style="fill:#ffffff"
       cx="24"
       cy="24"
       r="3"
       id="circle879" />
    <circle
       style="fill:#ffffff"
       cx="32"
       cy="24"
       r="3"
       id="circle881" />
    <circle
       style="fill:#ffffff"
       cx="16"
       cy="24"
       r="3"
       id="circle883" />
  </g>
</svg>
