<?xml version="1.0" encoding="UTF-8" standalone="no"?>
<!-- Created with Inkscape (http://www.inkscape.org/) -->

<svg
   width="32"
   version="1.1"
   height="32"
   viewBox="0 0 32 32"
   id="svg17"
   sodipodi:docname="folder-network.svg"
   inkscape:version="1.1 (c68e22c387, 2021-05-23)"
   xmlns:inkscape="http://www.inkscape.org/namespaces/inkscape"
   xmlns:sodipodi="http://sodipodi.sourceforge.net/DTD/sodipodi-0.dtd"
   xmlns:xlink="http://www.w3.org/1999/xlink"
   xmlns="http://www.w3.org/2000/svg"
   xmlns:svg="http://www.w3.org/2000/svg"
   xmlns:rdf="http://www.w3.org/1999/02/22-rdf-syntax-ns#"
   xmlns:cc="http://creativecommons.org/ns#"
   xmlns:dc="http://purl.org/dc/elements/1.1/">
  <sodipodi:namedview
     pagecolor="#ffffff"
     bordercolor="#666666"
     borderopacity="1"
     objecttolerance="10"
     gridtolerance="10"
     guidetolerance="10"
     inkscape:pageopacity="0"
     inkscape:pageshadow="2"
     inkscape:window-width="1366"
     inkscape:window-height="700"
     id="namedview19"
     showgrid="false"
     inkscape:zoom="7.375"
     inkscape:cx="28.881356"
     inkscape:cy="12.745763"
     inkscape:window-x="0"
     inkscape:window-y="0"
     inkscape:window-maximized="1"
     inkscape:current-layer="layer1-3"
     inkscape:pagecheckerboard="0" />
  <defs
     id="defs5455">
    <linearGradient
       id="a"
       y1="32.998"
       x1="34.5"
       y2="11.998"
       gradientUnits="userSpaceOnUse"
       x2="11.786">
      <stop
         stop-color="#dd1627"
         id="stop2" />
      <stop
         offset="1"
         stop-color="#df3e52"
         id="stop4" />
    </linearGradient>
    <linearGradient
       id="b"
       y1="10.38"
       x1="46.23"
       y2="35.663"
       x2="73.03"
       gradientUnits="userSpaceOnUse"
       gradientTransform="translate(-52)">
      <stop
         stop-color="#f8bac0"
         stop-opacity=".731"
         id="stop7" />
      <stop
         offset="1"
         stop-color="#f8bac0"
         stop-opacity="0"
         id="stop9" />
    </linearGradient>
    <path
       id="c"
       d="m.735 43.06l23.265-42.35 23.09 42.31c0 0-2.212-.155-5.272-.291-2.851-.127-1.794.114-8.278-1.089-4.911-.91-8.522-2.865-15.253-2.727-7.453.153-17.549 4.149-17.549 4.149" />
    <linearGradient
       id="linearGradient4222">
      <stop
         id="stop2-35"
         style="stop-color:#0166d0;stop-opacity:1"
         offset="0" />
      <stop
         id="stop4-62"
         style="stop-color:#51a6ff;stop-opacity:1"
         offset="1" />
    </linearGradient>
    <linearGradient
       id="linearGradient4198">
      <stop
         id="stop7-9"
         offset="0"
         style="stop-color:#208dff;stop-opacity:1" />
      <stop
         id="stop9-1"
         offset="1"
         style="stop-color:#51a6ff;stop-opacity:1" />
    </linearGradient>
    <linearGradient
       gradientTransform="matrix(0.78135593,0,0,0.78135593,-346.93123,-382.93369)"
       gradientUnits="userSpaceOnUse"
       y2="519.798"
       x2="402.571"
       y1="543.798"
       x1="402.571"
       id="linearGradient4204"
       xlink:href="#linearGradient4222" />
    <linearGradient
       gradientTransform="matrix(0.78135593,0,0,0.78135593,-346.93123,-382.93369)"
       gradientUnits="userSpaceOnUse"
       y2="519.798"
       x2="414.571"
       y1="543.798"
       x1="414.571"
       id="linearGradient4212"
       xlink:href="#linearGradient4198" />
    <linearGradient
       gradientTransform="matrix(1,0,0,0.99924452,384.57143,499.82444)"
       gradientUnits="userSpaceOnUse"
       y2="4"
       x2="24"
       y1="35"
       x1="24"
       id="linearGradient4220"
       xlink:href="#linearGradient4198" />
    <linearGradient
       gradientUnits="userSpaceOnUse"
       y2="38"
       x2="29"
       y1="21"
       x1="12"
       id="linearGradient4244"
       xlink:href="#linearGradient4227" />
    <linearGradient
       id="linearGradient4227">
      <stop
         id="stop16"
         style="stop-color:#292c2f;stop-opacity:1"
         offset="0" />
      <stop
         id="stop18"
         style="stop-color:#000000;stop-opacity:0;"
         offset="1" />
    </linearGradient>
    <linearGradient
       id="linearGradient4532"
       inkscape:collect="always">
      <stop
         id="stop4528"
         offset="0"
         style="stop-color:#000000;stop-opacity:1;" />
      <stop
         id="stop4530"
         offset="1"
         style="stop-color:#000000;stop-opacity:0;" />
    </linearGradient>
    <linearGradient
       id="linearGradient4454">
      <stop
         style="stop-color:#d21e1e;stop-opacity:1"
         offset="0"
         id="stop7-36" />
      <stop
         style="stop-color:#e05e4c;stop-opacity:1"
         offset="1"
         id="stop9-75" />
    </linearGradient>
    <linearGradient
       xlink:href="#linearGradient4454"
       id="linearGradient4213"
       x1="403.421"
       y1="544.092"
       x2="391.89"
       y2="525.725"
       gradientUnits="userSpaceOnUse"
       gradientTransform="translate(-384.57001,-499.79999)" />
    <linearGradient
       id="linearGradient4472">
      <stop
         style="stop-color:#ffa92d;stop-opacity:1"
         offset="0"
         id="stop13" />
      <stop
         style="stop-color:#ffc169;stop-opacity:1"
         offset="1"
         id="stop15" />
    </linearGradient>
    <linearGradient
       xlink:href="#linearGradient4472"
       id="linearGradient4235"
       x1="401.296"
       y1="523.203"
       x2="391.154"
       y2="505.319"
       gradientUnits="userSpaceOnUse"
       gradientTransform="translate(-384.57001,-499.79999)" />
    <linearGradient
       id="linearGradient4422-8">
      <stop
         style="stop-color:#377d50;stop-opacity:1"
         offset="0"
         id="stop19" />
      <stop
         style="stop-color:#54d883;stop-opacity:1"
         offset="1"
         id="stop21" />
    </linearGradient>
    <linearGradient
       xlink:href="#linearGradient4422-8"
       id="linearGradient4257"
       x1="424.602"
       y1="523.798"
       x2="413.779"
       y2="503.798"
       gradientUnits="userSpaceOnUse"
       gradientTransform="translate(-384.57001,-499.79999)" />
    <linearGradient
       id="linearGradient4438">
      <stop
         style="stop-color:#375a7d;stop-opacity:1"
         offset="0"
         id="stop25" />
      <stop
         style="stop-color:#54a3d8;stop-opacity:1"
         offset="1"
         id="stop27" />
    </linearGradient>
    <linearGradient
       xlink:href="#linearGradient4438"
       id="linearGradient4279"
       x1="420.884"
       y1="543.488"
       x2="412.118"
       y2="525.748"
       gradientUnits="userSpaceOnUse"
       gradientTransform="translate(-384.57001,-499.79999)" />
    <linearGradient
       xlink:href="#linearGradient4532"
       id="linearGradient4220-3"
       x1="4"
       y1="4"
       x2="44"
       y2="44"
       gradientUnits="userSpaceOnUse"
       gradientTransform="translate(0.00142264,-0.00198746)" />
    <linearGradient
       gradientUnits="userSpaceOnUse"
       x2="4"
       y2="44"
       x1="24"
       y1="4"
       id="a-2">
      <stop
         id="stop2-367"
         stop-color="#197cf1" />
      <stop
         id="stop4-5"
         stop-color="#20bcfa"
         offset="1" />
    </linearGradient>
    <linearGradient
       gradientUnits="userSpaceOnUse"
       x2="24"
       y2="4"
       x1="44"
       y1="44"
       id="b-7">
      <stop
         id="stop7-3"
         stop-color="#c61423" />
      <stop
         id="stop9-56"
         stop-color="#dc2b41"
         offset="1" />
    </linearGradient>
    <linearGradient
       gradientUnits="userSpaceOnUse"
       x2="4"
       x1="44"
       id="c-0">
      <stop
         id="stop12"
         stop-color="#42a603" />
      <stop
         id="stop14"
         stop-color="#78da06"
         offset="1" />
    </linearGradient>
    <linearGradient
       x2="416.57"
       gradientUnits="userSpaceOnUse"
       x1="400.57"
       y2="538.8"
       y1="522.8"
       id="d">
      <stop
         id="stop17"
         stop-color="#292c2f" />
      <stop
         id="stop19-29"
         stop-opacity="0"
         offset="1" />
    </linearGradient>
    <linearGradient
       id="b-3"
       y1="522.99"
       x1="430.51"
       y2="523.86"
       gradientUnits="userSpaceOnUse"
       x2="378.58"
       gradientTransform="matrix(.70711.70711-.70711.70711 105.4-635.69)">
      <stop
         stop-color="#fcfcfc"
         id="stop7-67" />
      <stop
         offset="1"
         stop-color="#e9eaeb"
         id="stop9-53" />
    </linearGradient>
    <linearGradient
       id="c-5"
       y1="19.869"
       x1="-28.649"
       y2="49.804"
       gradientUnits="userSpaceOnUse"
       x2="3.614"
       gradientTransform="translate(45.719-.92)">
      <stop
         id="stop12-6" />
      <stop
         offset="1"
         stop-opacity="0"
         id="stop14-2" />
    </linearGradient>
    <linearGradient
       id="d-9"
       y1="522.18"
       x1="388.34"
       y2="523.7"
       gradientUnits="userSpaceOnUse"
       x2="402.03"
       gradientTransform="matrix(.70711.70711-.70711.70711 105.48-635.28)">
      <stop
         stop-color="#ffffff"
         id="stop17-1" />
      <stop
         offset="1"
         stop-color="#eff0f1"
         id="stop19-2" />
    </linearGradient>
    <linearGradient
       id="e"
       y1="527.21"
       x1="422.48"
       y2="527.34"
       gradientUnits="userSpaceOnUse"
       x2="425.86"
       gradientTransform="matrix(.70711.70711-.70711.70711 105.48-635.28)">
      <stop
         stop-color="#f9f9f9"
         id="stop22" />
      <stop
         offset="1"
         stop-color="#f6f6f6"
         id="stop24" />
    </linearGradient>
    <linearGradient
       id="f"
       y1="8.627"
       x1="9.642"
       y2="24.326"
       x2="23.912"
       gradientUnits="userSpaceOnUse">
      <stop
         stop-color="#491309"
         id="stop27-1" />
      <stop
         offset="1"
         stop-color="#b6642d"
         id="stop29" />
    </linearGradient>
    <linearGradient
       id="h"
       y1="33.922"
       x1="32.641"
       y2="34.953"
       x2="33.609"
       gradientUnits="userSpaceOnUse">
      <stop
         stop-color="#cfcfcf"
         id="stop37" />
      <stop
         offset="1"
         stop-color="#ededed"
         stop-opacity="0"
         id="stop39" />
    </linearGradient>
    <linearGradient
       id="o"
       y1="522.24"
       x1="385.61"
       y2="523.27"
       gradientUnits="userSpaceOnUse"
       x2="409.82"
       gradientTransform="matrix(.70711.70711-.70711.70711 105.48-635.28)">
      <stop
         stop-color="#ffffff"
         id="stop62" />
      <stop
         offset="1"
         stop-color="#dfe1e3"
         id="stop64" />
    </linearGradient>
    <path
       id="p"
       color="#000000"
       d="M25 15A9 9 0 1 1 7 15 9 9 0 1 1 25 15" />
    <linearGradient
       gradientUnits="userSpaceOnUse"
       y2="503.67"
       x2="408.632"
       y1="543.773"
       x1="408.571"
       id="linearGradient4415"
       xlink:href="#linearGradient4299" />
    <linearGradient
       id="linearGradient4227-5">
      <stop
         id="stop8"
         style="stop-color:#2e3436;stop-opacity:1"
         offset="0" />
      <stop
         id="stop10"
         style="stop-color:#555753;stop-opacity:1"
         offset="1" />
    </linearGradient>
    <linearGradient
       gradientTransform="matrix(0.96481792,0,0,0.96481792,14.374377,18.428304)"
       gradientUnits="userSpaceOnUse"
       y2="512.397"
       x2="408.571"
       y1="535.199"
       x1="408.571"
       id="linearGradient4437"
       xlink:href="#linearGradient4227-5" />
    <linearGradient
       id="linearGradient4299">
      <stop
         id="stop14-3"
         style="stop-color:#1064d3;stop-opacity:1"
         offset="0" />
      <stop
         id="stop16-6"
         style="stop-color:#14c6fd;stop-opacity:1"
         offset="1" />
    </linearGradient>
    <linearGradient
       gradientUnits="userSpaceOnUse"
       y2="42.953"
       x2="42.946"
       y1="9.083"
       x1="9.077"
       id="linearGradient4392"
       xlink:href="#linearGradient4532" />
    <linearGradient
       id="linearGradient4258">
      <stop
         style="stop-color:#000019;stop-opacity:1"
         offset="0"
         id="stop2-36" />
      <stop
         style="stop-color:#000019;stop-opacity:0.29064038"
         offset="1"
         id="stop4-7" />
    </linearGradient>
    <linearGradient
       id="linearGradient4223">
      <stop
         style="stop-color:#c6cdd1;stop-opacity:1"
         offset="0"
         id="stop7-6" />
      <stop
         style="stop-color:#e0e5e7;stop-opacity:1"
         offset="1"
         id="stop9-7" />
    </linearGradient>
    <linearGradient
       id="linearGradient4217">
      <stop
         offset="0"
         style="stop-color:#1f93b9;stop-opacity:1"
         id="stop12-5" />
      <stop
         offset="1"
         style="stop-color:#1a5c9b;stop-opacity:1"
         id="stop14-5" />
    </linearGradient>
    <linearGradient
       id="linearGradient4191">
      <stop
         style="stop-color:#dc2b41;stop-opacity:1"
         offset="0"
         id="stop17-3" />
      <stop
         style="stop-color:#c61423;stop-opacity:1"
         offset="1"
         id="stop19-5" />
    </linearGradient>
    <linearGradient
       xlink:href="#linearGradient4217"
       id="linearGradient4197"
       x1="24"
       y1="7"
       x2="24"
       y2="29"
       gradientUnits="userSpaceOnUse"
       gradientTransform="translate(-50.199325,-1.1505466)" />
    <linearGradient
       xlink:href="#linearGradient4191"
       id="linearGradient4207"
       x1="24"
       y1="30"
       x2="24"
       y2="41"
       gradientUnits="userSpaceOnUse"
       gradientTransform="translate(-50.199325,0.84945337)" />
    <linearGradient
       xlink:href="#linearGradient4191"
       id="linearGradient4215"
       x1="11"
       y1="30"
       x2="11"
       y2="41"
       gradientUnits="userSpaceOnUse"
       gradientTransform="translate(-51.199325,0.84945337)" />
    <linearGradient
       xlink:href="#linearGradient4223"
       id="linearGradient4229"
       x1="29"
       y1="44"
       x2="29"
       y2="4"
       gradientUnits="userSpaceOnUse"
       gradientTransform="translate(-51.199325,-1.1505466)" />
    <radialGradient
       xlink:href="#linearGradient4258"
       id="radialGradient4264"
       cx="24"
       cy="24"
       fx="24"
       fy="24"
       r="19"
       gradientUnits="userSpaceOnUse"
       gradientTransform="translate(-51.199325,-1.1505466)" />
    <path
       d="m.735 43.06l23.265-42.35 23.09 42.31c0 0-2.212-.155-5.272-.291-2.851-.127-1.794.114-8.278-1.089-4.911-.91-8.522-2.865-15.253-2.727-7.453.153-17.549 4.149-17.549 4.149"
       id="c-2" />
  </defs>
  <metadata
     id="metadata5458">
    <rdf:RDF>
      <cc:Work
         rdf:about="">
        <dc:format>image/svg+xml</dc:format>
        <dc:type
           rdf:resource="http://purl.org/dc/dcmitype/StillImage" />
      </cc:Work>
    </rdf:RDF>
  </metadata>
  <g
     inkscape:label="Capa 1"
     inkscape:groupmode="layer"
     id="layer1"
     transform="translate(-384.57143,-515.798)">
    <g
       id="layer1-3"
       inkscape:label="Capa 1"
       transform="translate(-41.204668,1.5176521)">
      <g
         transform="matrix(0.91924692,0,0,0.82621952,310.47597,497.91871)"
         id="Folder_1_">
        <g
           id="g14" />
      </g>
      <text
         id="text9520"
         y="533.06659"
         x="265.36774"
         style="font-style:normal;font-weight:normal;font-size:0.955461px;line-height:125%;font-family:sans-serif;letter-spacing:0px;word-spacing:0px;fill:#ffffff;fill-opacity:1;stroke:none;stroke-width:1px;stroke-linecap:butt;stroke-linejoin:miter;stroke-opacity:1"
         xml:space="preserve"><tspan
           style="font-style:normal;font-variant:normal;font-weight:normal;font-stretch:normal;font-family:Sawasdee;-inkscape-font-specification:Sawasdee;fill:#ffffff;fill-opacity:1"
           y="0"
           x="0"
           id="tspan9522"
           sodipodi:role="line"><tspan
             id="tspan9524"
             style="font-style:normal;font-variant:normal;font-weight:normal;font-stretch:normal;font-family:Sarai;-inkscape-font-specification:Sarai"><tspan
               id="tspan9526"
               style="font-style:normal;font-variant:normal;font-weight:500;font-stretch:normal;font-family:'Samyak Tamil';-inkscape-font-specification:'Samyak Tamil Medium'" /></tspan></tspan></text>
      <g
         id="g9242"
         transform="matrix(0.9632436,0,0,0.91910219,55.134975,454.04206)" />
      <g
         id="g9262"
         style="fill:#ffcc66;fill-opacity:1"
         transform="matrix(0.47212916,0,0,0.47212916,451.78668,479.62629)" />
      <text
         id="text9520-3"
         y="530.69934"
         x="233.52097"
         style="font-style:normal;font-weight:normal;font-size:0.955461px;line-height:125%;font-family:sans-serif;letter-spacing:0px;word-spacing:0px;fill:#ffffff;fill-opacity:1;stroke:none;stroke-width:1px;stroke-linecap:butt;stroke-linejoin:miter;stroke-opacity:1"
         xml:space="preserve"><tspan
           style="font-style:normal;font-variant:normal;font-weight:normal;font-stretch:normal;font-family:Sawasdee;-inkscape-font-specification:Sawasdee;fill:#ffffff;fill-opacity:1"
           y="0"
           x="0"
           id="tspan9522-6"
           sodipodi:role="line"><tspan
             id="tspan9524-7"
             style="font-style:normal;font-variant:normal;font-weight:normal;font-stretch:normal;font-family:Sarai;-inkscape-font-specification:Sarai"><tspan
               id="tspan9526-5"
               style="font-style:normal;font-variant:normal;font-weight:500;font-stretch:normal;font-family:'Samyak Tamil';-inkscape-font-specification:'Samyak Tamil Medium'" /></tspan></tspan></text>
      <g
         id="g1321"
         transform="translate(-0.13519486,-0.33333888)">
        <path
           sodipodi:nodetypes="cccsc"
           style="fill:#ffffff;fill-opacity:1;fill-rule:nonzero;stroke:none;stroke-width:0.92003"
           d="m 432.29116,520.98896 3.09138,2.96888 h 11.92089 c -0.25474,-1.68494 -1.69815,-2.96888 -3.45637,-2.96888 z"
           id="path9200"
           inkscape:connector-curvature="0" />
        <g
           id="g9246"
           style="fill:#6693ed;fill-opacity:1;stroke:#000000;stroke-opacity:0.08"
           transform="matrix(-0.40864755,0,0,0.40864755,454.97118,517.16977)">
          <path
             style="clip-rule:evenodd;fill:#6693ed;fill-opacity:1;fill-rule:evenodd;stroke:#000000;stroke-width:0.3;stroke-miterlimit:4;stroke-dasharray:none;stroke-opacity:0.08"
             d="m -18.529297,2.5566406 c -0.902702,0 -1.634766,0.7320633 -1.634765,1.6347656 H -34.875 c -0.902702,0 -1.634766,0.7320632 -1.634766,1.6347657 v 0.9824219 c -0.888323,0.127545 -1.574218,0.8870725 -1.574218,1.8105468 v 1.7617184 0.07031 2.75 0.916016 13.59375 c 0,0.95708 0.821471,1.732421 1.833984,1.732421 h 25.667969 c 1.0125128,0 1.8339841,-0.775341 1.8339841,-1.732421 v -13.59375 -3.666016 -0.07031 c 0,-0.47854 -0.2053148,-0.912933 -0.5371093,-1.2265621 C -9.5660249,8.8735248 -9.9408061,8.6942714 -10.355469,8.6425781 V 8.2773438 5.8261719 4.1914062 c 0,-0.9027023 -0.732063,-1.6347656 -1.634765,-1.6347656 z"
             transform="matrix(-2.4470965,0,0,2.4470965,-25.342445,-6.2549778)"
             id="path9248"
             inkscape:connector-curvature="0" />
        </g>
        <path
           style="fill:#ffffff;fill-opacity:1;stroke:none;stroke-width:0.01;stroke-linecap:butt;stroke-linejoin:miter;stroke-miterlimit:4;stroke-dasharray:none;stroke-dashoffset:0;stroke-opacity:1"
           d="m 430.1359,520.34807 v 1.04882 h 6.27539 c 1.01251,0 1.83399,0.82343 1.83399,1.83594 h 15.15234 v -2.88476 z"
           id="rect9250"
           inkscape:connector-curvature="0" />
        <rect
           y="522.17694"
           x="430.13669"
           height="5.1955309"
           width="23.259993"
           id="rect9252"
           style="fill:#f7f7f7;fill-opacity:1;stroke:none;stroke-width:0.01;stroke-linecap:butt;stroke-linejoin:miter;stroke-miterlimit:4;stroke-dasharray:none;stroke-dashoffset:0;stroke-opacity:1" />
        <g
           id="g9256"
           style="fill:#6693ed;fill-opacity:1"
           transform="matrix(0.40817334,0,0,0.4332642,428.49061,518.0619)">
          <path
             style="fill:#6693ed;fill-opacity:1"
             d="m -36.25,6.7832031 c -1.012513,0 -1.833984,0.8234242 -1.833984,1.8359375 v 1.7617184 0.07031 2.75 0.628906 h 29.3359371 v -3.378906 -0.07031 c 0,-0.47854 -0.2053148,-0.912933 -0.5371093,-1.2265621 C -9.6169498,8.8226174 -10.075775,8.6191406 -10.582031,8.6191406 h -16.5 c 0,-1.0125133 -0.821472,-1.8359375 -1.833985,-1.8359375 z"
             transform="matrix(2.1816997,0,0,2.3080605,83.08571,-7.9586621)"
             id="path8358"
             inkscape:connector-curvature="0" />
        </g>
        <path
           id="path7554"
           d="m 430.1359,520.34807 v 1.04882 h 6.27539 c 1.01251,0 1.83399,0.82343 1.83399,1.83594 h 15.15234 v -2.88476 z"
           style="fill:#ffffff;fill-opacity:1;stroke:none;stroke-width:0.01;stroke-linecap:butt;stroke-linejoin:miter;stroke-miterlimit:4;stroke-dasharray:none;stroke-dashoffset:0;stroke-opacity:1"
           inkscape:connector-curvature="0" />
        <path
           style="fill:#ffffff;stroke-width:0.843167"
           d="m 435.17196,531.45837 c -2.79358,0 -5.059,2.26542 -5.059,5.059 0,2.79358 2.26542,5.059 5.059,5.059 2.79358,0 5.059,-2.26542 5.059,-5.059 0,-2.79358 -2.26542,-5.059 -5.059,-5.059 z m -0.36121,1.40033 c 0.0486,-0.005 0.10927,0.003 0.15784,0 0.006,0.0233 -0.0354,0.10523 -0.09,0.22563 -0.3511,0.76695 -0.37133,1.66543 -0.0455,2.14603 0.0587,0.087 0.11332,0.16998 0.11332,0.1801 0,0.0111 -0.0637,0.0233 -0.13558,0.0233 -0.16897,0 -0.32884,-0.1032 -0.65464,-0.36222 -0.1457,-0.11434 -0.33389,-0.21046 -0.40674,-0.22563 -0.11535,-0.0223 -0.1457,-0.0122 -0.29342,0.13558 -0.13862,0.13861 -0.18112,0.21248 -0.18112,0.33895 0,0.47858 0.56864,0.86003 1.62597,1.08364 1.43574,0.30455 1.78987,0.57774 1.82933,1.33254 0.0496,0.94704 -0.4543,1.66137 -1.55817,2.21382 -0.13153,0.0658 -0.21551,0.0911 -0.27116,0.11231 -0.0243,-0.002 -0.0435,0.003 -0.0678,0 -0.009,-0.0283 -0.0223,-0.0971 -0.0223,-0.22563 0,-0.50287 -0.19832,-1.0199 -0.4968,-1.30927 -0.0799,-0.0779 -0.30455,-0.24284 -0.49679,-0.36122 -0.19224,-0.11939 -0.38651,-0.25801 -0.429,-0.31669 -0.0718,-0.0981 -0.0779,-0.15784 -0.0233,-0.33895 0.10016,-0.32985 0.21956,-0.514 0.45227,-0.72243 0.12142,-0.10927 0.24384,-0.20135 0.27116,-0.20337 0.0263,-0.002 -0.15582,-0.0567 -0.429,-0.11332 -0.2742,-0.0556 -0.67386,-0.17302 -0.88128,-0.24789 -0.37841,-0.1366 -0.88937,-0.42496 -1.08364,-0.63238 -0.008,-0.009 -0.0162,-0.0152 -0.0233,-0.0223 0.27926,-1.11196 1.06239,-2.0236 2.1005,-2.46171 0.21754,-0.0921 0.44114,-0.15581 0.6779,-0.20337 0.11737,-0.0243 0.2398,-0.0334 0.36122,-0.0455 z m 3.3875,1.69375 c 0.085,0.0526 0.40574,0.7457 0.4968,1.08364 0.11838,0.4371 0.10927,1.19291 0,1.62596 -0.0415,0.16594 -0.0951,0.31973 -0.11231,0.33896 -0.0182,0.0192 -0.083,-0.0911 -0.15885,-0.22563 -0.0759,-0.13457 -0.31771,-0.4199 -0.51906,-0.63238 -0.58178,-0.61315 -0.67285,-0.93288 -0.429,-1.42259 0.12243,-0.24688 0.65666,-0.80843 0.72242,-0.76796 z"
           id="path5538" />
      </g>
    </g>
  </g>
</svg>
