<?xml version="1.0" encoding="UTF-8" standalone="no"?>
<svg
   width="32"
   height="32"
   id="svg2"
   version="1.1"
   inkscape:version="1.1 (c68e22c387, 2021-05-23)"
   sodipodi:docname="application-vnd.mysql-workbench-model.svg"
   xmlns:inkscape="http://www.inkscape.org/namespaces/inkscape"
   xmlns:sodipodi="http://sodipodi.sourceforge.net/DTD/sodipodi-0.dtd"
   xmlns="http://www.w3.org/2000/svg"
   xmlns:svg="http://www.w3.org/2000/svg"
   xmlns:rdf="http://www.w3.org/1999/02/22-rdf-syntax-ns#"
   xmlns:cc="http://creativecommons.org/ns#"
   xmlns:dc="http://purl.org/dc/elements/1.1/">
  <metadata
     id="metadata39">
    <rdf:RDF>
      <cc:Work
         rdf:about="">
        <dc:format>image/svg+xml</dc:format>
        <dc:type
           rdf:resource="http://purl.org/dc/dcmitype/StillImage" />
      </cc:Work>
    </rdf:RDF>
  </metadata>
  <sodipodi:namedview
     pagecolor="#ffffff"
     bordercolor="#666666"
     borderopacity="1"
     objecttolerance="10"
     gridtolerance="10"
     guidetolerance="10"
     inkscape:pageopacity="0"
     inkscape:pageshadow="2"
     inkscape:window-width="1366"
     inkscape:window-height="700"
     id="namedview37"
     showgrid="false"
     inkscape:zoom="3.6875"
     inkscape:cx="60.745763"
     inkscape:cy="1.8983051"
     inkscape:window-x="0"
     inkscape:window-y="0"
     inkscape:window-maximized="1"
     inkscape:current-layer="g3420"
     inkscape:pagecheckerboard="0" />
  <defs
     id="defs4">
    <linearGradient
       id="a"
       y1="392.36"
       y2="365.36"
       x2="0"
       gradientUnits="userSpaceOnUse"
       gradientTransform="translate(309.57,152.44)">
      <stop
         stop-color="#ffffff"
         stop-opacity="0"
         id="stop7" />
      <stop
         offset="1"
         stop-color="#ffffff"
         stop-opacity=".2"
         id="stop9" />
    </linearGradient>
    <linearGradient
       id="b"
       y1="17"
       y2="24"
       x1="47"
       x2="54"
       gradientUnits="userSpaceOnUse"
       gradientTransform="translate(357.57 507.8)">
      <stop
         stop-color="#060606"
         id="stop12" />
      <stop
         offset="1"
         stop-opacity="0"
         id="stop14" />
    </linearGradient>
    <path
       id="c"
       d="m389.57 545.8v-28h15l7 7v21h-14z" />
    <linearGradient
       gradientTransform="translate(309.57,152.44)"
       gradientUnits="userSpaceOnUse"
       x2="0"
       y2="365.36"
       y1="392.36"
       id="b-6">
      <stop
         id="stop12-2"
         stop-opacity="0"
         stop-color="#ffffff" />
      <stop
         id="stop14-9"
         stop-opacity=".2"
         stop-color="#ffffff"
         offset="1" />
    </linearGradient>
    <path
       d="m389.57 545.8v-28h15l7 7v21h-14z"
       id="c-12" />
    <linearGradient
       id="a-7"
       y1="392.36"
       y2="365.36"
       gradientUnits="userSpaceOnUse"
       x2="0"
       gradientTransform="translate(309.57 152.44)">
      <stop
         stop-color="#ffffff"
         stop-opacity="0"
         id="stop7-5" />
      <stop
         offset="1"
         stop-color="#ffffff"
         stop-opacity=".2"
         id="stop9-3" />
    </linearGradient>
    <path
       id="c-1"
       d="m389.57 545.8v-28h15l7 7v21h-14z" />
    <linearGradient
       gradientTransform="translate(309.57,152.44)"
       x2="0"
       gradientUnits="userSpaceOnUse"
       y2="365.36"
       y1="392.36"
       id="b-5">
      <stop
         id="stop12-6"
         stop-opacity="0"
         stop-color="#ffffff" />
      <stop
         id="stop14-2"
         stop-opacity=".2"
         stop-color="#ffffff"
         offset="1" />
    </linearGradient>
    <path
       d="m389.57 545.8v-28h15l7 7v21h-14z"
       id="c-9" />
  </defs>
  <g
     id="g3420"
     transform="translate(-0.56382442,-0.07261456)">
    <g
       id="g3407"
       transform="translate(0.56382786,-0.60535562)"
       style="fill:#1e4bc6;stroke:#000000;stroke-opacity:0.08">
      <g
         transform="translate(-384.43584,-515.12003)"
         id="layer1"
         inkscape:label="Capa 1"
         style="fill:#1e4bc6;stroke:#000000;stroke-opacity:0.08">
        <g
           id="g4437-3-6"
           transform="matrix(0.25706214,0,0,0.25706214,390.63923,529.52681)"
           style="fill:#1e4bc6;stroke:#000000;stroke-opacity:0.08">
          <g
             inkscape:label="Capa 1"
             id="layer1-8"
             transform="matrix(3.89011,0,0,3.89011,-1520.0669,-2061.7389)"
             style="fill:#1e4bc6;stroke:#000000;stroke-opacity:0.08">
            <text
               id="text4665"
               y="538.00714"
               x="392.60995"
               style="font-style:normal;font-weight:normal;line-height:0%;font-family:sans-serif;letter-spacing:0px;word-spacing:0px;fill:#1e4bc6;fill-opacity:1;stroke:#000000;stroke-width:1px;stroke-linecap:butt;stroke-linejoin:miter;stroke-opacity:0.08"
               xml:space="preserve"><tspan
                 y="538.00714"
                 x="392.60995"
                 id="tspan4667"
                 sodipodi:role="line"
                 style="font-size:1.69228px;line-height:1.25;fill:#1e4bc6;stroke:#000000;stroke-opacity:0.08"> </tspan></text>
            <g
               inkscape:label="Capa 1"
               id="layer1-59"
               transform="translate(0.11241931,0.12922051)"
               style="fill:#1e4bc6;stroke:#000000;stroke-opacity:0.08">
              <g
                 transform="matrix(0.25706214,0,0,0.25706214,390.63923,529.52681)"
                 id="g4437-3-6-7"
                 style="fill:#1e4bc6;stroke:#000000;stroke-opacity:0.08">
                <g
                   transform="matrix(3.89011,0,0,3.89011,-1520.0669,-2061.7389)"
                   id="layer1-8-53"
                   inkscape:label="Capa 1"
                   style="fill:#1e4bc6;stroke:#000000;stroke-opacity:0.08">
                  <text
                     xml:space="preserve"
                     style="font-style:normal;font-weight:normal;line-height:0%;font-family:sans-serif;letter-spacing:0px;word-spacing:0px;fill:#1e4bc6;fill-opacity:1;stroke:#000000;stroke-width:1px;stroke-linecap:butt;stroke-linejoin:miter;stroke-opacity:0.08"
                     x="392.60995"
                     y="538.00714"
                     id="text4665-8"><tspan
                       sodipodi:role="line"
                       id="tspan4667-8"
                       x="392.60995"
                       y="538.00714"
                       style="font-size:1.69228px;line-height:1.25;fill:#1e4bc6;stroke:#000000;stroke-opacity:0.08"> </tspan></text>
                  <g
                     transform="translate(0.19948935,0.26253295)"
                     id="layer1-85"
                     inkscape:label="Capa 1"
                     style="fill:#1e4bc6;stroke:#000000;stroke-opacity:0.08">
                    <g
                       id="g4437-3-6-97"
                       transform="matrix(0.25706214,0,0,0.25706214,390.63923,529.52681)"
                       style="fill:#1e4bc6;stroke:#000000;stroke-opacity:0.08">
                      <g
                         inkscape:label="Capa 1"
                         id="layer1-8-5"
                         transform="matrix(3.89011,0,0,3.89011,-1520.0669,-2061.7389)"
                         style="fill:#1e4bc6;stroke:#000000;stroke-opacity:0.08">
                        <g
                           inkscape:label="Capa 1"
                           id="layer1-9"
                           transform="translate(0.02535072,0.69032305)"
                           style="fill:#1e4bc6;stroke:#000000;stroke-opacity:0.08">
                          <g
                             transform="matrix(0.25706214,0,0,0.25706214,390.63923,529.52681)"
                             id="g4437-3-6-1"
                             style="fill:#1e4bc6;stroke:#000000;stroke-opacity:0.08">
                            <g
                               transform="matrix(3.89011,0,0,3.89011,-1520.0669,-2061.7389)"
                               id="layer1-8-7"
                               inkscape:label="Capa 1"
                               style="fill:#1e4bc6;stroke:#000000;stroke-opacity:0.08">
                              <g
                                 transform="translate(0.01300294,0.56286094)"
                                 id="layer1-5"
                                 inkscape:label="Capa 1"
                                 style="fill:#1e4bc6;stroke:#000000;stroke-opacity:0.08">
                                <g
                                   id="g4437-3-6-9"
                                   transform="matrix(0.25706214,0,0,0.25706214,390.63923,529.52681)"
                                   style="fill:#1e4bc6;stroke:#000000;stroke-opacity:0.08">
                                <g
                                   inkscape:label="Capa 1"
                                   id="layer1-8-4"
                                   transform="matrix(3.89011,0,0,3.89011,-1520.0669,-2061.7389)"
                                   style="fill:#1e4bc6;stroke:#000000;stroke-opacity:0.08">
                                <rect
                                   ry="1.0623779"
                                   rx="1.1297435"
                                   y="519.61206"
                                   x="387.76566"
                                   height="25.764034"
                                   width="25.764034"
                                   id="rect4694"
                                   style="opacity:1;fill:#1e4bc6;fill-opacity:1;stroke:#000000;stroke-width:0.303;stroke-linecap:butt;stroke-linejoin:miter;stroke-miterlimit:4;stroke-dasharray:none;stroke-dashoffset:0;stroke-opacity:0.08" />
                                </g>
                                </g>
                              </g>
                            </g>
                          </g>
                        </g>
                      </g>
                    </g>
                  </g>
                </g>
              </g>
            </g>
          </g>
        </g>
      </g>
    </g>
    <path
       style="fill:#ffffff"
       d="m 23.779653,22.964467 c -0.09674,-0.06115 -0.627425,-0.354573 -1.179265,-0.652036 -1.148675,-0.619163 -2.29435,-1.56717 -2.29435,-1.898399 0,-0.293959 0.375619,-0.528941 0.949872,-0.594325 0.275614,-0.03136 0.636962,-0.08267 0.80298,-0.114043 l 0.301869,-0.05703 -0.447545,-0.316457 c -0.423385,-0.299371 -0.751177,-0.447936 -1.712139,-0.776066 -0.622177,-0.212415 -1.073676,-0.70762 -1.582389,-1.735375 -1.325139,-2.67742 -1.570602,-3.117384 -2.020923,-3.62242 -0.507047,-0.568711 -1.238782,-1.161222 -2.221333,-1.798636 -0.964765,-0.625903 -1.115033,-0.682577 -1.810925,-0.682577 -0.554141,0 -0.670927,-0.02969 -1.015979,-0.258404 -0.545088,-0.361251 -1.08664,-0.5846292 -1.422584,-0.5868062 -0.4325193,-0.0028 -0.3813913,0.2961772 0.161683,0.9455172 0.527156,0.630311 0.651587,0.846585 0.914139,1.588947 0.10807,0.305557 0.399932,0.897037 0.648588,1.314393 0.248652,0.417349 0.452089,0.795664 0.452089,0.840725 0,0.04503 -0.104235,0.370652 -0.231632,0.723592 -0.280049,0.775805 -0.35753,1.605435 -0.20738,2.220554 0.26056,1.067421 0.580499,1.212814 0.762534,0.346509 0.158003,-0.752007 0.430927,-1.206383 0.723372,-1.204413 0.08998,5.7e-4 0.376715,0.42705 0.79982,1.18948 0.362748,0.653695 0.886819,1.479435 1.164586,1.834984 0.277768,0.355553 0.487109,0.663703 0.465203,0.684807 -0.05191,0.05001 -0.770677,-0.536407 -1.294765,-1.056275 -0.226857,-0.225056 -0.55216,-0.633783 -0.722891,-0.908339 -0.294637,-0.473697 -0.314501,-0.488807 -0.38978,-0.296478 -0.0436,0.11146 -0.106879,0.324754 -0.14057,0.473977 -0.09716,0.430401 -0.368372,0.7028 -0.699694,0.7028 -0.463847,0 -0.796552,-0.45024 -1.066926,-1.443813 -0.180659,-0.66386 -0.134818,-2.076148 0.09024,-2.780451 0.145141,-0.454195 0.145056,-0.454995 -0.07099,-0.677651 -0.278132,-0.286652 -0.436452,-0.593859 -0.778772,-1.511065 -0.217117,-0.581778 -0.417742,-0.917363 -0.9160683,-1.532533 -0.448113,-0.553155 -0.655444,-0.886769 -0.696481,-1.120569 -0.127226,-0.7254082 0.162751,-1.1465988 0.780482,-1.1336878 0.4775933,0.01 1.4554763,0.326443 1.8767613,0.6073386 0.248523,0.165709 0.496803,0.237944 0.977676,0.284434 1.182908,0.1143642 2.472261,0.8436292 3.824187,2.1628942 1.309496,1.277889 2.295475,2.784547 2.661957,4.067672 0.245587,0.859807 0.633749,1.265547 1.699442,1.776287 0.782409,0.374982 1.022944,0.545171 1.733298,1.226607 0.453642,0.435161 0.824784,0.855709 0.824784,0.934525 0,0.173248 -0.368179,0.296489 -1.099229,0.367946 -1.025033,0.100188 -1.017157,0.08101 -0.249824,0.608014 1.30805,0.898384 1.7783,1.336222 1.917423,1.785309 0.06643,0.214424 -0.0032,0.233261 -0.260592,0.07052 z M 12.521647,12.208845 c -0.07155,-0.164967 -0.209315,-0.340781 -0.306128,-0.390688 -0.20596,-0.106176 -0.22719,-0.277262 -0.05181,-0.417474 0.188034,-0.150324 0.733712,0.09384 0.802873,0.359228 0.164534,0.631452 -0.204337,1.003646 -0.444952,0.448934 z"
       id="path1181" />
  </g>
</svg>
