<?xml version="1.0" encoding="UTF-8" standalone="no"?>
<svg
   width="32"
   height="32"
   id="svg2"
   version="1.1"
   inkscape:version="1.1 (c68e22c387, 2021-05-23)"
   sodipodi:docname="application-x-apple-diskimage.svg"
   xmlns:inkscape="http://www.inkscape.org/namespaces/inkscape"
   xmlns:sodipodi="http://sodipodi.sourceforge.net/DTD/sodipodi-0.dtd"
   xmlns="http://www.w3.org/2000/svg"
   xmlns:svg="http://www.w3.org/2000/svg"
   xmlns:rdf="http://www.w3.org/1999/02/22-rdf-syntax-ns#"
   xmlns:cc="http://creativecommons.org/ns#"
   xmlns:dc="http://purl.org/dc/elements/1.1/">
  <metadata
     id="metadata39">
    <rdf:RDF>
      <cc:Work
         rdf:about="">
        <dc:format>image/svg+xml</dc:format>
        <dc:type
           rdf:resource="http://purl.org/dc/dcmitype/StillImage" />
      </cc:Work>
    </rdf:RDF>
  </metadata>
  <sodipodi:namedview
     pagecolor="#ffffff"
     bordercolor="#666666"
     borderopacity="1"
     objecttolerance="10"
     gridtolerance="10"
     guidetolerance="10"
     inkscape:pageopacity="0"
     inkscape:pageshadow="2"
     inkscape:window-width="1366"
     inkscape:window-height="708"
     id="namedview37"
     showgrid="false"
     inkscape:zoom="5.2149125"
     inkscape:cx="8.7249786"
     inkscape:cy="16.299411"
     inkscape:window-x="0"
     inkscape:window-y="0"
     inkscape:window-maximized="1"
     inkscape:current-layer="svg2"
     inkscape:pagecheckerboard="0" />
  <defs
     id="defs4">
    <linearGradient
       id="a"
       y1="17"
       y2="24"
       x1="47"
       x2="54"
       gradientUnits="userSpaceOnUse"
       gradientTransform="translate(357.57 507.8)">
      <stop
         stop-color="#060606"
         id="stop7" />
      <stop
         offset="1"
         stop-opacity="0"
         id="stop9" />
    </linearGradient>
    <linearGradient
       id="b"
       y1="392.36"
       y2="365.36"
       x2="0"
       gradientUnits="userSpaceOnUse"
       gradientTransform="translate(309.57 152.44)">
      <stop
         stop-color="#ffffff"
         stop-opacity="0"
         id="stop12" />
      <stop
         offset="1"
         stop-color="#ffffff"
         stop-opacity=".2"
         id="stop14" />
    </linearGradient>
    <path
       id="c"
       d="m389.57 545.8v-28h15l7 7v21h-14z" />
    <linearGradient
       gradientUnits="userSpaceOnUse"
       x2="411.57"
       y2="531.8"
       x1="404.57"
       y1="524.8"
       id="a-3">
      <stop
         id="stop7-5"
         stop-color="#383e51" />
      <stop
         id="stop9-6"
         stop-opacity="0"
         stop-color="#655c6f"
         offset="1" />
    </linearGradient>
    <linearGradient
       gradientUnits="userSpaceOnUse"
       x2="396.54"
       y2="517.8"
       x1="396.48"
       y1="546.02"
       id="b-2">
      <stop
         id="stop12-9"
         stop-opacity="0"
         stop-color="#ffffff" />
      <stop
         id="stop14-1"
         stop-opacity=".2"
         stop-color="#ffffff"
         offset="1" />
    </linearGradient>
    <path
       d="m389.57 545.8v-28h15l7 7v21h-7z"
       id="c-2" />
    <path
       d="m389.57 545.8v-28h15l7 7v21h-7z"
       id="c-7" />
  </defs>
  <g
     transform="translate(-384.43584,-515.798)"
     id="g5737"
     inkscape:label="Capa 1"
     style="fill:#fafafa;stroke:#000000;stroke-opacity:0.08">
    <g
       id="g5739"
       transform="matrix(0.25706214,0,0,0.25706214,390.63923,529.52681)"
       style="fill:#fafafa;stroke:#000000;stroke-opacity:0.08">
      <g
         inkscape:label="Capa 1"
         id="g5741"
         transform="matrix(3.89011,0,0,3.89011,-1520.0669,-2061.7389)"
         style="fill:#fafafa;stroke:#000000;stroke-opacity:0.08">
        <text
           id="text5743"
           y="538.00714"
           x="392.60995"
           style="font-style:normal;font-weight:normal;line-height:0%;font-family:sans-serif;letter-spacing:0px;word-spacing:0px;fill:#fafafa;fill-opacity:1;stroke:#000000;stroke-width:1px;stroke-linecap:butt;stroke-linejoin:miter;stroke-opacity:0.08"
           xml:space="preserve"><tspan
             y="538.00714"
             x="392.60995"
             id="tspan5745"
             sodipodi:role="line"
             style="font-size:1.69228px;line-height:1.25;fill:#fafafa;stroke:#000000;stroke-opacity:0.08"> </tspan></text>
        <g
           inkscape:label="Capa 1"
           id="g5747"
           transform="translate(0.11241931,0.12922051)"
           style="fill:#fafafa;stroke:#000000;stroke-opacity:0.08">
          <g
             transform="matrix(0.25706214,0,0,0.25706214,390.63923,529.52681)"
             id="g5749"
             style="fill:#fafafa;stroke:#000000;stroke-opacity:0.08">
            <g
               transform="matrix(3.89011,0,0,3.89011,-1520.0669,-2061.7389)"
               id="g5751"
               inkscape:label="Capa 1"
               style="fill:#fafafa;stroke:#000000;stroke-opacity:0.08">
              <text
                 xml:space="preserve"
                 style="font-style:normal;font-weight:normal;line-height:0%;font-family:sans-serif;letter-spacing:0px;word-spacing:0px;fill:#fafafa;fill-opacity:1;stroke:#000000;stroke-width:1px;stroke-linecap:butt;stroke-linejoin:miter;stroke-opacity:0.08"
                 x="392.60995"
                 y="538.00714"
                 id="text5753"><tspan
                   sodipodi:role="line"
                   id="tspan5755"
                   x="392.60995"
                   y="538.00714"
                   style="font-size:1.69228px;line-height:1.25;fill:#fafafa;stroke:#000000;stroke-opacity:0.08"> </tspan></text>
              <g
                 transform="translate(0.19948935,0.26253295)"
                 id="g5757"
                 inkscape:label="Capa 1"
                 style="fill:#fafafa;stroke:#000000;stroke-opacity:0.08">
                <g
                   id="g5759"
                   transform="matrix(0.25706214,0,0,0.25706214,390.63923,529.52681)"
                   style="fill:#fafafa;stroke:#000000;stroke-opacity:0.08">
                  <g
                     inkscape:label="Capa 1"
                     id="g5761"
                     transform="matrix(3.89011,0,0,3.89011,-1520.0669,-2061.7389)"
                     style="fill:#fafafa;stroke:#000000;stroke-opacity:0.08">
                    <g
                       inkscape:label="Capa 1"
                       id="g5763"
                       transform="translate(0.02535072,0.69032305)"
                       style="fill:#fafafa;stroke:#000000;stroke-opacity:0.08">
                      <g
                         transform="matrix(0.25706214,0,0,0.25706214,390.63923,529.52681)"
                         id="g5765"
                         style="fill:#fafafa;stroke:#000000;stroke-opacity:0.08">
                        <g
                           transform="matrix(3.89011,0,0,3.89011,-1520.0669,-2061.7389)"
                           id="g5767"
                           inkscape:label="Capa 1"
                           style="fill:#fafafa;stroke:#000000;stroke-opacity:0.08">
                          <g
                             transform="translate(0.01300294,0.56286094)"
                             id="g5769"
                             inkscape:label="Capa 1"
                             style="fill:#fafafa;stroke:#000000;stroke-opacity:0.08">
                            <g
                               id="g5771"
                               transform="matrix(0.25706214,0,0,0.25706214,390.63923,529.52681)"
                               style="fill:#fafafa;stroke:#000000;stroke-opacity:0.08">
                              <g
                                 inkscape:label="Capa 1"
                                 id="g5773"
                                 transform="matrix(3.89011,0,0,3.89011,-1520.0669,-2061.7389)"
                                 style="fill:#fafafa;stroke:#000000;stroke-opacity:0.08">
                                <rect
                                   ry="1.0623779"
                                   rx="1.1297435"
                                   y="519.61206"
                                   x="387.76566"
                                   height="25.764034"
                                   width="25.764034"
                                   id="rect5775"
                                   style="opacity:1;fill:#fafafa;fill-opacity:1;stroke:#000000;stroke-width:0.303;stroke-linecap:butt;stroke-linejoin:miter;stroke-miterlimit:4;stroke-dasharray:none;stroke-dashoffset:0;stroke-opacity:0.08" />
                              </g>
                            </g>
                          </g>
                        </g>
                      </g>
                    </g>
                  </g>
                </g>
              </g>
            </g>
          </g>
        </g>
      </g>
    </g>
  </g>
  <g
     id="g1273"
     transform="matrix(1.0714286,0,0,1.0714286,-1.92031,-2.3083962)"
     style="fill:#636a82">
    <path
       style="fill:#636a82"
       d="m 16.725622,10.087836 c -3.878,0 -6.9999996,3.122 -6.9999996,7 0,3.878 3.1219996,7 6.9999996,7 3.878,0 7,-3.122 7,-7 0,-3.878 -3.122,-7 -7,-7 z m 0,4 a 3,3 0 0 1 3,3 3,3 0 0 1 -3,3 3,3 0 0 1 -3,-3 3,3 0 0 1 3,-3 z"
       id="path1225" />
    <path
       style="opacity:0.3;fill:#636a82"
       d="m 16.725622,13.587836 a 3.5,3.5 0 0 0 -3.5,3.5 3.5,3.5 0 0 0 3.5,3.5 3.5,3.5 0 0 0 3.5,-3.5 3.5,3.5 0 0 0 -3.5,-3.5 z m 0,2.5 c 0.5523,0 1,0.4477 1,1 0,0.5523 -0.4477,1 -1,1 -0.5523,0 -1,-0.4477 -1,-1 0,-0.5523 0.4477,-1 1,-1 z"
       id="path1227" />
  </g>
</svg>
