<?xml version="1.0" encoding="UTF-8" standalone="no"?>
<!-- Created with Inkscape (http://www.inkscape.org/) -->

<svg
   width="32"
   version="1.1"
   height="32"
   id="svg2"
   inkscape:version="1.1 (c68e22c387, 2021-05-23)"
   sodipodi:docname="application-x-font-bdf.svg"
   xmlns:inkscape="http://www.inkscape.org/namespaces/inkscape"
   xmlns:sodipodi="http://sodipodi.sourceforge.net/DTD/sodipodi-0.dtd"
   xmlns="http://www.w3.org/2000/svg"
   xmlns:svg="http://www.w3.org/2000/svg"
   xmlns:rdf="http://www.w3.org/1999/02/22-rdf-syntax-ns#"
   xmlns:cc="http://creativecommons.org/ns#"
   xmlns:dc="http://purl.org/dc/elements/1.1/">
  <sodipodi:namedview
     pagecolor="#ffffff"
     bordercolor="#666666"
     borderopacity="1"
     objecttolerance="10"
     gridtolerance="10"
     guidetolerance="10"
     inkscape:pageopacity="0"
     inkscape:pageshadow="2"
     inkscape:window-width="1366"
     inkscape:window-height="708"
     id="namedview31"
     showgrid="false"
     inkscape:zoom="5.2149125"
     inkscape:cx="3.355761"
     inkscape:cy="32.982337"
     inkscape:window-x="0"
     inkscape:window-y="0"
     inkscape:window-maximized="1"
     inkscape:current-layer="layer1"
     inkscape:pagecheckerboard="0" />
  <defs
     id="defs5455">
    <linearGradient
       gradientTransform="matrix(0.5,0,0,-0.48276,0,31.45)"
       gradientUnits="userSpaceOnUse"
       x2="0"
       y2="3"
       y1="61"
       id="a">
      <stop
         id="stop7"
         stop-color="#8e44ad" />
      <stop
         id="stop9"
         stop-color="#9b59b6"
         offset="1" />
    </linearGradient>
    <linearGradient
       gradientTransform="translate(-384.57,-515.8)"
       gradientUnits="userSpaceOnUse"
       x2="0"
       y2="524.8"
       y1="518.04"
       id="b">
      <stop
         id="stop12"
         stop-color="#d3bdd7" />
      <stop
         id="stop14"
         stop-color="#e8d9eb"
         offset="1" />
    </linearGradient>
    <linearGradient
       gradientTransform="translate(-384.57,-515.8)"
       gradientUnits="userSpaceOnUse"
       x2="411.57"
       y2="531.8"
       x1="404.57"
       y1="524.8"
       id="c">
      <stop
         id="stop17"
         stop-color="#383e51" />
      <stop
         id="stop19"
         stop-opacity="0"
         stop-color="#655c6f"
         offset="1" />
    </linearGradient>
  </defs>
  <metadata
     id="metadata5458">
    <rdf:RDF>
      <cc:Work
         rdf:about="">
        <dc:format>image/svg+xml</dc:format>
        <dc:type
           rdf:resource="http://purl.org/dc/dcmitype/StillImage" />
      </cc:Work>
    </rdf:RDF>
  </metadata>
  <g
     inkscape:label="Capa 1"
     inkscape:groupmode="layer"
     id="layer1"
     transform="translate(-384.57143,-515.798)">
    <rect
       width="0"
       x="415.89221"
       y="526.79797"
       height="10.999983"
       style="fill:#ffffff"
       id="rect4035" />
    <rect
       width="0"
       x="415.57144"
       y="525.79797"
       height="10.999983"
       style="fill:#ffffff"
       id="rect4035-4" />
    <rect
       width="0"
       x="414.03558"
       y="525.68414"
       height="11.1139"
       style="fill:#fbd2bf"
       id="rect4035-3" />
    <rect
       width="0"
       x="415.57144"
       y="525.79797"
       height="10.999983"
       style="fill:#fbd2bf"
       id="rect4035-1" />
    <rect
       width="0"
       x="415.89221"
       y="526.79797"
       height="10.999983"
       style="fill:#ffffff"
       id="rect4035-7" />
    <rect
       width="0"
       x="415.57144"
       y="525.79797"
       height="10.999983"
       style="fill:#ffffff"
       id="rect4035-4-53" />
    <rect
       width="0"
       x="414.03558"
       y="525.68414"
       height="11.1139"
       style="fill:#fbd2bf"
       id="rect4035-3-5" />
    <rect
       width="0"
       x="415.57144"
       y="525.79797"
       height="10.999983"
       style="fill:#fbd2bf"
       id="rect4035-1-6" />
    <rect
       width="0"
       x="415.57144"
       y="525.79797"
       height="10.999983"
       style="fill:#fbfbfb"
       id="rect4035-5" />
    <rect
       width="0"
       x="415.89221"
       y="526.79797"
       height="10.999983"
       style="fill:#ffffff"
       id="rect4035-53" />
    <rect
       width="0"
       x="415.57144"
       y="525.79797"
       height="10.999983"
       style="fill:#ffffff"
       id="rect4035-4-5" />
    <rect
       width="0"
       x="416.28268"
       y="526.74646"
       height="10.999983"
       style="fill:#ffffff"
       id="rect4035-75" />
    <rect
       width="0"
       x="415.96191"
       y="525.74646"
       height="10.999983"
       style="fill:#ffffff"
       id="rect4035-4-3" />
    <rect
       width="0"
       x="414.42606"
       y="525.63263"
       height="11.1139"
       style="fill:#fbd2bf"
       id="rect4035-3-56" />
    <rect
       width="0"
       x="415.96191"
       y="525.74646"
       height="10.999983"
       style="fill:#fbd2bf"
       id="rect4035-1-2" />
    <rect
       width="0"
       x="416.28268"
       y="526.74646"
       height="10.999983"
       style="fill:#ffffff"
       id="rect4035-7-9" />
    <rect
       width="0"
       x="415.96191"
       y="525.74646"
       height="10.999983"
       style="fill:#ffffff"
       id="rect4035-4-53-1" />
    <rect
       width="0"
       x="414.42606"
       y="525.63263"
       height="11.1139"
       style="fill:#fbd2bf"
       id="rect4035-3-5-2" />
    <rect
       width="0"
       x="415.96191"
       y="525.74646"
       height="10.999983"
       style="fill:#fbd2bf"
       id="rect4035-1-6-7" />
    <rect
       width="0"
       x="415.96191"
       y="525.74646"
       height="10.999983"
       style="fill:#fbfbfb"
       id="rect4035-5-0" />
    <rect
       width="0"
       x="416.28268"
       y="526.74646"
       height="10.999983"
       style="fill:#ffffff"
       id="rect4035-53-9" />
    <rect
       width="0"
       x="415.96191"
       y="525.74646"
       height="10.999983"
       style="fill:#ffffff"
       id="rect4035-4-5-3" />
    <g
       style="fill:#6693ed;fill-opacity:1;stroke:#000000;stroke-width:0.3;stroke-miterlimit:4;stroke-dasharray:none;stroke-opacity:0.08"
       inkscape:label="Capa 1"
       id="layer1-3"
       transform="translate(-0.02914299,0.00610644)">
      <g
         style="fill:#6693ed;fill-opacity:1;stroke:#000000;stroke-width:1.16703;stroke-miterlimit:4;stroke-dasharray:none;stroke-opacity:0.08"
         transform="matrix(0.25706214,0,0,0.25706214,390.63923,529.52681)"
         id="g4437-3-6">
        <g
           style="fill:#6693ed;fill-opacity:1;stroke:#000000;stroke-width:0.3;stroke-miterlimit:4;stroke-dasharray:none;stroke-opacity:0.08"
           transform="matrix(3.89011,0,0,3.89011,-1520.0669,-2061.7389)"
           id="layer1-8"
           inkscape:label="Capa 1">
          <rect
             ry="1.3417394"
             y="519.15619"
             x="387.62262"
             height="26.207815"
             width="26.180746"
             id="rect4713"
             style="opacity:1;fill:#6693ed;fill-opacity:1;stroke:#000000;stroke-width:0.3;stroke-linecap:butt;stroke-linejoin:miter;stroke-miterlimit:4;stroke-dasharray:none;stroke-dashoffset:0;stroke-opacity:0.08" />
        </g>
      </g>
    </g>
    <g
       aria-label="Aa"
       id="text2895"
       style="font-size:40px;line-height:1.25;font-family:'Noto Sans';-inkscape-font-specification:'Noto Sans';fill:#ffffff"
       transform="matrix(0.44704264,0,0,0.44704264,212.76031,301.73136)">
      <path
         d="m 419.53904,528.78137 -3.44,-8.84 h -11.32 l -3.4,8.84 h -3.64 l 11.16,-28.68 h 3.24 l 11.12,28.68 z m -7.72,-20.68 q -0.12,-0.32 -0.4,-1.16 -0.28,-0.84 -0.56,-1.72 -0.24,-0.92 -0.4,-1.4 -0.28,1.24 -0.64,2.44 -0.36,1.16 -0.6,1.84 l -3.24,8.64 h 9.04 z"
         id="path4487"
         style="fill:#ffffff" />
      <path
         d="m 434.81904,506.98137 q 3.92,0 5.8,1.72 1.88,1.72 1.88,5.48 v 14.6 h -2.56 l -0.68,-3.04 h -0.16 q -1.4,1.76 -2.96,2.6 -1.52,0.84 -4.24,0.84 -2.92,0 -4.84,-1.52 -1.92,-1.56 -1.92,-4.84 0,-3.2 2.52,-4.92 2.52,-1.76 7.76,-1.92 l 3.64,-0.12 v -1.28 q 0,-2.68 -1.16,-3.72 -1.16,-1.04 -3.28,-1.04 -1.68,0 -3.2,0.52 -1.52,0.48 -2.84,1.12 l -1.08,-2.64 q 1.4,-0.76 3.32,-1.28 1.92,-0.56 4,-0.56 z m 1.04,11.44 q -4,0.16 -5.56,1.28 -1.52,1.12 -1.52,3.16 0,1.8 1.08,2.64 1.12,0.84 2.84,0.84 2.72,0 4.52,-1.48 1.8,-1.52 1.8,-4.64 v -1.92 z"
         id="path4489"
         style="fill:#ffffff" />
    </g>
  </g>
</svg>
